<?xml version="1.0" encoding="UTF-8"?><svg id="Layer_1" xmlns="http://www.w3.org/2000/svg" viewBox="0 0 1920 334.99"><rect y="46.99" width="1920" height="288" rx="13.05" ry="13.05" style="fill:#0058a7; stroke-width:0px;"/><path d="M535.11,131.81h32.27l41.58,116.27h-32.27l-3.83-10.65c-1.16-2.99-2.33-5.49-4.49-7.49-4.32-3.99-10.31-5.49-16.63-5.66h-1.33c-6.32.17-12.48,1.5-16.8,5.16-2.16,2-3.49,4.49-4.66,7.49l-4.16,11.14h-32.1l42.42-116.27ZM561.22,203l-10.15-31.6-10.31,31.6h20.46Z" style="fill:#74edff; stroke-width:0px;"/><path d="M639.4,131.81h31.1v116.27h-31.1v-116.27Z" style="fill:#74edff; stroke-width:0px;"/><path d="M770.8,242.26v-28.11c9.65,0,21.29,10.15,31.6,10.15,7.49,0,12.14-3.66,12.14-9.81,0-4.82-4.99-8.98-15.14-12.48-12.48-4.49-30.11-12.31-30.11-35.1s16.63-37.26,40.25-37.26c17.3,0,33.1,8.32,33.1,8.32v28.11c-9.31,0-21.12-9.81-31.27-9.81-5.99,0-10.15,3.33-10.15,8.32,0,6.82,9.31,9.31,18.96,12.97,17.8,6.49,26.45,17.8,26.28,34.26,0,14.64-9.81,39.59-42.58,39.59-16.8,0-33.1-9.15-33.1-9.15Z" style="fill:#74edff; stroke-width:0px;"/><path d="M897.04,159.09h-22.62v-27.28h76.51v27.28h-22.79v88.99h-31.1v-88.99Z" style="fill:#74edff; stroke-width:0px;"/><path d="M981.37,208.83v-77.01h30.44v77.01c0,8.82,4.32,12.64,13.31,12.64h.83c9.15,0,13.47-3.99,13.47-12.64v-77.01h30.61v77.01c0,13.97-2.99,42.42-43.58,42.42h-2c-39.59,0-43.08-28.44-43.08-42.42Z" style="fill:#74edff; stroke-width:0px;"/><path d="M1107.79,248.08v-116.27h31.27c41.42,0,63.37,19.29,63.37,57.39s-22.62,58.88-62.71,58.88h-31.94ZM1171.66,189.53c0-20.13-10.48-30.44-32.1-30.44v61.71c21.62,0,32.1-10.65,32.1-31.27Z" style="fill:#74edff; stroke-width:0px;"/><path d="M1236.69,131.81h31.1v116.27h-31.1v-116.27Z" style="fill:#74edff; stroke-width:0px;"/><path d="M1362.61,127.82c82.17,0,80.17,123.75.17,123.75s-82.34-123.75-.17-123.75ZM1362.44,219.64h.67c20.79,0,30.77-10.31,30.77-30.27s-9.81-29.61-31.1-29.61-31.1,9.98-31.1,29.61,9.48,30.27,30.77,30.27Z" style="fill:#74edff; stroke-width:0px;"/><path d="M588.18,268.08l-4.99-13.89c-1.01-2.58-1.86-4.33-3.2-5.56-2.93-2.71-7.41-4.17-13.31-4.33h-1.2c-6.07.17-10.63,1.48-13.55,3.9-1.29,1.22-2.26,2.84-3.31,5.55l-5.35,14.33h-42.72l46.06-126.27h39.29l45.16,126.27h-42.88ZM569.37,213l-3.33-10.37-3.38,10.37h6.71Z" style="fill:#666; stroke-width:0px;"/><rect x="649.4" y="141.81" width="41.1" height="126.27" style="fill:#666; stroke-width:0px;"/><path d="M818.9,271.41c-17.9,0-34.84-9.39-35.55-9.79l-2.55-1.43v-36.04h5c5.86,0,11.73,2.76,17.41,5.42,4.95,2.32,10.07,4.73,14.2,4.73,4.74,0,7.14-1.62,7.14-4.81,0-1.79-3.09-4.76-11.76-7.75-10.06-3.62-33.48-12.05-33.48-39.82,0-12.02,4.57-22.86,12.88-30.54,8.18-7.56,19.68-11.72,32.38-11.72,18.32,0,34.74,8.53,35.43,8.89l2.67,1.41v36.13h-5c-5.64,0-11.44-2.64-17.05-5.2-4.98-2.27-10.12-4.61-14.22-4.61-.86,0-5.15.16-5.15,3.32,0,2.52,6.52,4.91,12.28,7.02,1.14.42,2.3.84,3.46,1.28,19.75,7.2,29.7,20.32,29.51,38.99,0,17.87-12.67,44.54-47.58,44.54Z" style="fill:#666; stroke-width:0px;"/><polygon points="907.04 268.08 907.04 179.09 884.42 179.09 884.42 141.81 970.94 141.81 970.94 179.09 948.15 179.09 948.15 268.08 907.04 268.08" style="fill:#666; stroke-width:0px;"/><path d="M1039.46,271.24c-31.01,0-48.08-16.84-48.08-47.42v-82.01h40.44v82.01c0,5.18,1.24,7.64,8.31,7.64h.83c7.16,0,8.47-2.57,8.47-7.64v-82.01h40.61v82.01c0,21.63-8.43,47.42-48.58,47.42h-2Z" style="fill:#666; stroke-width:0px;"/><path d="M1117.79,268.08v-126.27h36.27c21.96,0,38.98,5.28,50.56,15.69,11.82,10.62,17.81,26.33,17.81,46.7s-6.03,36.63-17.92,47.64c-11.64,10.78-28.39,16.24-49.78,16.24h-36.94ZM1159.56,230.59c15.24-1.39,22.1-9.59,22.1-26.06s-6.87-23.88-22.1-25.23v51.29Z" style="fill:#666; stroke-width:0px;"/><rect x="1246.69" y="141.81" width="41.1" height="126.27" style="fill:#666; stroke-width:0px;"/><path d="M1377.77,271.57c-43.27,0-65.9-34-65.9-67.59,0-17.32,5.8-33.44,16.33-45.4,11.96-13.58,29.05-20.76,49.41-20.76s37.52,7.21,49.52,20.84c10.56,12,16.38,28.16,16.38,45.52,0,33.49-22.58,67.4-65.74,67.4ZM1377.77,179.76c-18.05,0-26.1,7.59-26.1,24.61s7.71,25.27,25.77,25.27h.67c17.82,0,25.77-7.79,25.77-25.27s-7.81-24.61-26.1-24.61Z" style="fill:#666; stroke-width:0px;"/><path d="M587.18,267.08l-4.99-13.89c-1.01-2.58-1.86-4.33-3.2-5.56-2.93-2.71-7.41-4.17-13.31-4.33h-1.2c-6.07.17-10.63,1.48-13.55,3.9-1.29,1.22-2.26,2.84-3.31,5.55l-5.35,14.33h-42.72l46.06-126.27h39.29l45.16,126.27h-42.88ZM568.37,212l-3.33-10.37-3.38,10.37h6.71Z" style="fill:#666; stroke-width:0px;"/><rect x="648.4" y="140.81" width="41.1" height="126.27" style="fill:#666; stroke-width:0px;"/><path d="M817.9,270.41c-17.9,0-34.84-9.39-35.55-9.79l-2.55-1.43v-36.04h5c5.86,0,11.73,2.76,17.41,5.42,4.95,2.32,10.07,4.73,14.2,4.73,4.74,0,7.14-1.62,7.14-4.81,0-1.79-3.09-4.76-11.76-7.75-10.06-3.62-33.48-12.05-33.48-39.82,0-12.02,4.57-22.86,12.88-30.54,8.18-7.56,19.68-11.72,32.38-11.72,18.32,0,34.74,8.53,35.43,8.89l2.67,1.41v36.13h-5c-5.64,0-11.44-2.64-17.05-5.2-4.98-2.27-10.12-4.61-14.22-4.61-.86,0-5.15.16-5.15,3.32,0,2.52,6.52,4.91,12.28,7.02,1.14.42,2.3.84,3.46,1.28,19.75,7.2,29.7,20.32,29.51,38.99,0,17.87-12.67,44.54-47.58,44.54Z" style="fill:#666; stroke-width:0px;"/><polygon points="906.04 267.08 906.04 178.09 883.42 178.09 883.42 140.81 969.94 140.81 969.94 178.09 947.15 178.09 947.15 267.08 906.04 267.08" style="fill:#666; stroke-width:0px;"/><path d="M1038.46,270.24c-31.01,0-48.08-16.84-48.08-47.42v-82.01h40.44v82.01c0,5.18,1.24,7.64,8.31,7.64h.83c7.16,0,8.47-2.57,8.47-7.64v-82.01h40.61v82.01c0,21.63-8.43,47.42-48.58,47.42h-2Z" style="fill:#666; stroke-width:0px;"/><path d="M1116.79,267.08v-126.27h36.27c21.96,0,38.98,5.28,50.56,15.69,11.82,10.62,17.81,26.33,17.81,46.7s-6.03,36.63-17.92,47.64c-11.64,10.78-28.39,16.24-49.78,16.24h-36.94ZM1158.56,229.59c15.24-1.39,22.1-9.59,22.1-26.06s-6.87-23.88-22.1-25.23v51.29Z" style="fill:#666; stroke-width:0px;"/><rect x="1245.69" y="140.81" width="41.1" height="126.27" style="fill:#666; stroke-width:0px;"/><path d="M1376.77,270.57c-43.27,0-65.9-34-65.9-67.59,0-17.32,5.8-33.44,16.33-45.4,11.96-13.58,29.05-20.76,49.41-20.76s37.52,7.21,49.52,20.84c10.56,12,16.38,28.16,16.38,45.52,0,33.49-22.58,67.4-65.74,67.4ZM1376.77,178.76c-18.05,0-26.1,7.59-26.1,24.61s7.71,25.27,25.77,25.27h.67c17.82,0,25.77-7.79,25.77-25.27s-7.81-24.61-26.1-24.61Z" style="fill:#666; stroke-width:0px;"/><path d="M586.18,266.08l-4.99-13.89c-1.01-2.58-1.86-4.33-3.2-5.56-2.93-2.71-7.41-4.17-13.31-4.33h-1.2c-6.07.17-10.63,1.48-13.55,3.9-1.29,1.22-2.26,2.84-3.31,5.55l-5.35,14.33h-42.72l46.06-126.27h39.29l45.16,126.27h-42.88ZM567.37,211l-3.33-10.37-3.38,10.37h6.71Z" style="fill:#666; stroke-width:0px;"/><rect x="647.4" y="139.81" width="41.1" height="126.27" style="fill:#666; stroke-width:0px;"/><path d="M816.9,269.41c-17.9,0-34.84-9.39-35.55-9.79l-2.55-1.43v-36.04h5c5.86,0,11.73,2.76,17.41,5.42,4.95,2.32,10.07,4.73,14.2,4.73,4.74,0,7.14-1.62,7.14-4.81,0-1.79-3.09-4.76-11.76-7.75-10.06-3.62-33.48-12.05-33.48-39.82,0-12.02,4.57-22.86,12.88-30.54,8.18-7.56,19.68-11.72,32.38-11.72,18.32,0,34.74,8.53,35.43,8.89l2.67,1.41v36.13h-5c-5.64,0-11.44-2.64-17.05-5.2-4.98-2.27-10.12-4.61-14.22-4.61-.86,0-5.15.16-5.15,3.32,0,2.52,6.52,4.91,12.28,7.02,1.14.42,2.3.84,3.46,1.28,19.75,7.2,29.7,20.32,29.51,38.99,0,17.87-12.67,44.54-47.58,44.54Z" style="fill:#666; stroke-width:0px;"/><polygon points="905.04 266.08 905.04 177.09 882.42 177.09 882.42 139.81 968.94 139.81 968.94 177.09 946.15 177.09 946.15 266.08 905.04 266.08" style="fill:#666; stroke-width:0px;"/><path d="M1037.46,269.24c-31.01,0-48.08-16.84-48.08-47.42v-82.01h40.44v82.01c0,5.18,1.24,7.64,8.31,7.64h.83c7.16,0,8.47-2.57,8.47-7.64v-82.01h40.61v82.01c0,21.63-8.43,47.42-48.58,47.42h-2Z" style="fill:#666; stroke-width:0px;"/><path d="M1115.79,266.08v-126.27h36.27c21.96,0,38.98,5.28,50.56,15.69,11.82,10.62,17.81,26.33,17.81,46.7s-6.03,36.63-17.92,47.64c-11.64,10.78-28.39,16.24-49.78,16.24h-36.94ZM1157.56,228.59c15.24-1.39,22.1-9.59,22.1-26.06s-6.87-23.88-22.1-25.23v51.29Z" style="fill:#666; stroke-width:0px;"/><rect x="1244.69" y="139.81" width="41.1" height="126.27" style="fill:#666; stroke-width:0px;"/><path d="M1375.77,269.57c-43.27,0-65.9-34-65.9-67.59,0-17.32,5.8-33.44,16.33-45.4,11.96-13.58,29.05-20.76,49.41-20.76s37.52,7.21,49.52,20.84c10.56,12,16.38,28.16,16.38,45.52,0,33.49-22.58,67.4-65.74,67.4ZM1375.77,177.76c-18.05,0-26.1,7.59-26.1,24.61s7.71,25.27,25.77,25.27h.67c17.82,0,25.77-7.79,25.77-25.27s-7.81-24.61-26.1-24.61Z" style="fill:#666; stroke-width:0px;"/><path d="M585.18,265.08l-4.99-13.89c-1.01-2.58-1.86-4.33-3.2-5.56-2.93-2.71-7.41-4.17-13.31-4.33h-1.2c-6.07.17-10.63,1.48-13.55,3.9-1.29,1.22-2.26,2.84-3.31,5.55l-5.35,14.33h-42.72l46.06-126.27h39.29l45.16,126.27h-42.88ZM566.37,210l-3.33-10.37-3.38,10.37h6.71Z" style="fill:#666; stroke-width:0px;"/><rect x="646.4" y="138.81" width="41.1" height="126.27" style="fill:#666; stroke-width:0px;"/><path d="M815.9,268.41c-17.9,0-34.84-9.39-35.55-9.79l-2.55-1.43v-36.04h5c5.86,0,11.73,2.76,17.41,5.42,4.95,2.32,10.07,4.73,14.2,4.73,4.74,0,7.14-1.62,7.14-4.81,0-1.79-3.09-4.76-11.76-7.75-10.06-3.62-33.48-12.05-33.48-39.82,0-12.02,4.57-22.86,12.88-30.54,8.18-7.56,19.68-11.72,32.38-11.72,18.32,0,34.74,8.53,35.43,8.89l2.67,1.41v36.13h-5c-5.64,0-11.44-2.64-17.05-5.2-4.98-2.27-10.12-4.61-14.22-4.61-.86,0-5.15.16-5.15,3.32,0,2.52,6.52,4.91,12.28,7.02,1.14.42,2.3.84,3.46,1.28,19.75,7.2,29.7,20.32,29.51,38.99,0,17.87-12.67,44.54-47.58,44.54Z" style="fill:#666; stroke-width:0px;"/><polygon points="904.04 265.08 904.04 176.09 881.42 176.09 881.42 138.81 967.94 138.81 967.94 176.09 945.15 176.09 945.15 265.08 904.04 265.08" style="fill:#666; stroke-width:0px;"/><path d="M1036.46,268.24c-31.01,0-48.08-16.84-48.08-47.42v-82.01h40.44v82.01c0,5.18,1.24,7.64,8.31,7.64h.83c7.16,0,8.47-2.57,8.47-7.64v-82.01h40.61v82.01c0,21.63-8.43,47.42-48.58,47.42h-2Z" style="fill:#666; stroke-width:0px;"/><path d="M1114.79,265.08v-126.27h36.27c21.96,0,38.98,5.28,50.56,15.69,11.82,10.62,17.81,26.33,17.81,46.7s-6.03,36.63-17.92,47.64c-11.64,10.78-28.39,16.24-49.78,16.24h-36.94ZM1156.56,227.59c15.24-1.39,22.1-9.59,22.1-26.06s-6.87-23.88-22.1-25.23v51.29Z" style="fill:#666; stroke-width:0px;"/><rect x="1243.69" y="138.81" width="41.1" height="126.27" style="fill:#666; stroke-width:0px;"/><path d="M1374.77,268.57c-43.27,0-65.9-34-65.9-67.59,0-17.32,5.8-33.44,16.33-45.4,11.96-13.58,29.05-20.76,49.41-20.76s37.52,7.21,49.52,20.84c10.56,12,16.38,28.16,16.38,45.52,0,33.49-22.58,67.4-65.74,67.4ZM1374.77,176.76c-18.05,0-26.1,7.59-26.1,24.61s7.71,25.27,25.77,25.27h.67c17.82,0,25.77-7.79,25.77-25.27s-7.81-24.61-26.1-24.61Z" style="fill:#666; stroke-width:0px;"/><path d="M584.18,264.08l-4.99-13.89c-1.01-2.58-1.86-4.33-3.2-5.56-2.93-2.71-7.41-4.17-13.31-4.33h-1.2c-6.07.17-10.63,1.48-13.55,3.9-1.29,1.22-2.26,2.84-3.31,5.55l-5.35,14.33h-42.72l46.06-126.27h39.29l45.16,126.27h-42.88ZM565.37,209l-3.33-10.37-3.38,10.37h6.71Z" style="fill:#666; stroke-width:0px;"/><rect x="645.4" y="137.81" width="41.1" height="126.27" style="fill:#666; stroke-width:0px;"/><path d="M814.9,267.41c-17.9,0-34.84-9.39-35.55-9.79l-2.55-1.43v-36.04h5c5.86,0,11.73,2.76,17.41,5.42,4.95,2.32,10.07,4.73,14.2,4.73,4.74,0,7.14-1.62,7.14-4.81,0-1.79-3.09-4.76-11.76-7.75-10.06-3.62-33.48-12.05-33.48-39.82,0-12.02,4.57-22.86,12.88-30.54,8.18-7.56,19.68-11.72,32.38-11.72,18.32,0,34.74,8.53,35.43,8.89l2.67,1.41v36.13h-5c-5.64,0-11.44-2.64-17.05-5.2-4.98-2.27-10.12-4.61-14.22-4.61-.86,0-5.15.16-5.15,3.32,0,2.52,6.52,4.91,12.28,7.02,1.14.42,2.3.84,3.46,1.28,19.75,7.2,29.7,20.32,29.51,38.99,0,17.87-12.67,44.54-47.58,44.54Z" style="fill:#666; stroke-width:0px;"/><polygon points="903.04 264.08 903.04 175.09 880.42 175.09 880.42 137.81 966.94 137.81 966.94 175.09 944.15 175.09 944.15 264.08 903.04 264.08" style="fill:#666; stroke-width:0px;"/><path d="M1035.46,267.24c-31.01,0-48.08-16.84-48.08-47.42v-82.01h40.44v82.01c0,5.18,1.24,7.64,8.31,7.64h.83c7.16,0,8.47-2.57,8.47-7.64v-82.01h40.61v82.01c0,21.63-8.43,47.42-48.58,47.42h-2Z" style="fill:#666; stroke-width:0px;"/><path d="M1113.79,264.08v-126.27h36.27c21.96,0,38.98,5.28,50.56,15.69,11.82,10.62,17.81,26.33,17.81,46.7s-6.03,36.63-17.92,47.64c-11.64,10.78-28.39,16.24-49.78,16.24h-36.94ZM1155.56,226.59c15.24-1.39,22.1-9.59,22.1-26.06s-6.87-23.88-22.1-25.23v51.29Z" style="fill:#666; stroke-width:0px;"/><rect x="1242.69" y="137.81" width="41.1" height="126.27" style="fill:#666; stroke-width:0px;"/><path d="M1373.77,267.57c-43.27,0-65.9-34-65.9-67.59,0-17.32,5.8-33.44,16.33-45.4,11.96-13.58,29.05-20.76,49.41-20.76s37.52,7.21,49.52,20.84c10.56,12,16.38,28.16,16.38,45.52,0,33.49-22.58,67.4-65.74,67.4ZM1373.77,175.76c-18.05,0-26.1,7.59-26.1,24.61s7.71,25.27,25.77,25.27h.67c17.82,0,25.77-7.79,25.77-25.27s-7.81-24.61-26.1-24.61Z" style="fill:#666; stroke-width:0px;"/><path d="M583.18,263.08l-4.99-13.89c-1.01-2.58-1.86-4.33-3.2-5.56-2.93-2.71-7.41-4.17-13.31-4.33h-1.2c-6.07.17-10.63,1.48-13.55,3.9-1.29,1.22-2.26,2.84-3.31,5.55l-5.35,14.33h-42.72l46.06-126.27h39.29l45.16,126.27h-42.88ZM564.37,208l-3.33-10.37-3.38,10.37h6.71Z" style="fill:#666; stroke-width:0px;"/><rect x="644.4" y="136.81" width="41.1" height="126.27" style="fill:#666; stroke-width:0px;"/><path d="M813.9,266.41c-17.9,0-34.84-9.39-35.55-9.79l-2.55-1.43v-36.04h5c5.86,0,11.73,2.76,17.41,5.42,4.95,2.32,10.07,4.73,14.2,4.73,4.74,0,7.14-1.62,7.14-4.81,0-1.79-3.09-4.76-11.76-7.75-10.06-3.62-33.48-12.05-33.48-39.82,0-12.02,4.57-22.86,12.88-30.54,8.18-7.56,19.68-11.72,32.38-11.72,18.32,0,34.74,8.53,35.43,8.89l2.67,1.41v36.13h-5c-5.64,0-11.44-2.64-17.05-5.2-4.98-2.27-10.12-4.61-14.22-4.61-.86,0-5.15.16-5.15,3.32,0,2.52,6.52,4.91,12.28,7.02,1.14.42,2.3.84,3.46,1.28,19.75,7.2,29.7,20.32,29.51,38.99,0,17.87-12.67,44.54-47.58,44.54Z" style="fill:#666; stroke-width:0px;"/><polygon points="902.04 263.08 902.04 174.09 879.42 174.09 879.42 136.81 965.94 136.81 965.94 174.09 943.15 174.09 943.15 263.08 902.04 263.08" style="fill:#666; stroke-width:0px;"/><path d="M1034.46,266.24c-31.01,0-48.08-16.84-48.08-47.42v-82.01h40.44v82.01c0,5.18,1.24,7.64,8.31,7.64h.83c7.16,0,8.47-2.57,8.47-7.64v-82.01h40.61v82.01c0,21.63-8.43,47.42-48.58,47.42h-2Z" style="fill:#666; stroke-width:0px;"/><path d="M1112.79,263.08v-126.27h36.27c21.96,0,38.98,5.28,50.56,15.69,11.82,10.62,17.81,26.33,17.81,46.7s-6.03,36.63-17.92,47.64c-11.64,10.78-28.39,16.24-49.78,16.24h-36.94ZM1154.56,225.59c15.24-1.39,22.1-9.59,22.1-26.06s-6.87-23.88-22.1-25.23v51.29Z" style="fill:#666; stroke-width:0px;"/><rect x="1241.69" y="136.81" width="41.1" height="126.27" style="fill:#666; stroke-width:0px;"/><path d="M1372.77,266.57c-43.27,0-65.9-34-65.9-67.59,0-17.32,5.8-33.44,16.33-45.4,11.96-13.58,29.05-20.76,49.41-20.76s37.52,7.21,49.52,20.84c10.56,12,16.38,28.16,16.38,45.52,0,33.49-22.58,67.4-65.74,67.4ZM1372.77,174.76c-18.05,0-26.1,7.59-26.1,24.61s7.71,25.27,25.77,25.27h.67c17.82,0,25.77-7.79,25.77-25.27s-7.81-24.61-26.1-24.61Z" style="fill:#666; stroke-width:0px;"/><path d="M582.18,262.08l-4.99-13.89c-1.01-2.58-1.86-4.33-3.2-5.56-2.93-2.71-7.41-4.17-13.31-4.33h-1.2c-6.07.17-10.63,1.48-13.55,3.9-1.29,1.22-2.26,2.84-3.31,5.55l-5.35,14.33h-42.72l46.06-126.27h39.29l45.16,126.27h-42.88ZM563.37,207l-3.33-10.37-3.38,10.37h6.71Z" style="fill:#666; stroke-width:0px;"/><rect x="643.4" y="135.81" width="41.1" height="126.27" style="fill:#666; stroke-width:0px;"/><path d="M812.9,265.41c-17.9,0-34.84-9.39-35.55-9.79l-2.55-1.43v-36.04h5c5.86,0,11.73,2.76,17.41,5.42,4.95,2.32,10.07,4.73,14.2,4.73,4.74,0,7.14-1.62,7.14-4.81,0-1.79-3.09-4.76-11.76-7.75-10.06-3.62-33.48-12.05-33.48-39.82,0-12.02,4.57-22.86,12.88-30.54,8.18-7.56,19.68-11.72,32.38-11.72,18.32,0,34.74,8.53,35.43,8.89l2.67,1.41v36.13h-5c-5.64,0-11.44-2.64-17.05-5.2-4.98-2.27-10.12-4.61-14.22-4.61-.86,0-5.15.16-5.15,3.32,0,2.52,6.52,4.91,12.28,7.02,1.14.42,2.3.84,3.46,1.28,19.75,7.2,29.7,20.32,29.51,38.99,0,17.87-12.67,44.54-47.58,44.54Z" style="fill:#666; stroke-width:0px;"/><polygon points="901.04 262.08 901.04 173.09 878.42 173.09 878.42 135.81 964.94 135.81 964.94 173.09 942.15 173.09 942.15 262.08 901.04 262.08" style="fill:#666; stroke-width:0px;"/><path d="M1033.46,265.24c-31.01,0-48.08-16.84-48.08-47.42v-82.01h40.44v82.01c0,5.18,1.24,7.64,8.31,7.64h.83c7.16,0,8.47-2.57,8.47-7.64v-82.01h40.61v82.01c0,21.63-8.43,47.42-48.58,47.42h-2Z" style="fill:#666; stroke-width:0px;"/><path d="M1111.79,262.08v-126.27h36.27c21.96,0,38.98,5.28,50.56,15.69,11.82,10.62,17.81,26.33,17.81,46.7s-6.03,36.63-17.92,47.64c-11.64,10.78-28.39,16.24-49.78,16.24h-36.94ZM1153.56,224.59c15.24-1.39,22.1-9.59,22.1-26.06s-6.87-23.88-22.1-25.23v51.29Z" style="fill:#666; stroke-width:0px;"/><rect x="1240.69" y="135.81" width="41.1" height="126.27" style="fill:#666; stroke-width:0px;"/><path d="M1371.77,265.57c-43.27,0-65.9-34-65.9-67.59,0-17.32,5.8-33.44,16.33-45.4,11.96-13.58,29.05-20.76,49.41-20.76s37.52,7.21,49.52,20.84c10.56,12,16.38,28.16,16.38,45.52,0,33.49-22.58,67.4-65.74,67.4ZM1371.77,173.76c-18.05,0-26.1,7.59-26.1,24.61s7.71,25.27,25.77,25.27h.67c17.82,0,25.77-7.79,25.77-25.27s-7.81-24.61-26.1-24.61Z" style="fill:#666; stroke-width:0px;"/><path d="M581.18,261.08l-4.99-13.89c-1.01-2.58-1.86-4.33-3.2-5.56-2.93-2.71-7.41-4.17-13.31-4.33h-1.2c-6.07.17-10.63,1.48-13.55,3.9-1.29,1.22-2.26,2.84-3.31,5.55l-5.35,14.33h-42.72l46.06-126.27h39.29l45.16,126.27h-42.88ZM562.37,206l-3.33-10.37-3.38,10.37h6.71Z" style="fill:#666; stroke-width:0px;"/><rect x="642.4" y="134.81" width="41.1" height="126.27" style="fill:#666; stroke-width:0px;"/><path d="M811.9,264.41c-17.9,0-34.84-9.39-35.55-9.79l-2.55-1.43v-36.04h5c5.86,0,11.73,2.76,17.41,5.42,4.95,2.32,10.07,4.73,14.2,4.73,4.74,0,7.14-1.62,7.14-4.81,0-1.79-3.09-4.76-11.76-7.75-10.06-3.62-33.48-12.05-33.48-39.82,0-12.02,4.57-22.86,12.88-30.54,8.18-7.56,19.68-11.72,32.38-11.72,18.32,0,34.74,8.53,35.43,8.89l2.67,1.41v36.13h-5c-5.64,0-11.44-2.64-17.05-5.2-4.98-2.27-10.12-4.61-14.22-4.61-.86,0-5.15.16-5.15,3.32,0,2.52,6.52,4.91,12.28,7.02,1.14.42,2.3.84,3.46,1.28,19.75,7.2,29.7,20.32,29.51,38.99,0,17.87-12.67,44.54-47.58,44.54Z" style="fill:#666; stroke-width:0px;"/><polygon points="900.04 261.08 900.04 172.09 877.42 172.09 877.42 134.81 963.94 134.81 963.94 172.09 941.15 172.09 941.15 261.08 900.04 261.08" style="fill:#666; stroke-width:0px;"/><path d="M1032.46,264.24c-31.01,0-48.08-16.84-48.08-47.42v-82.01h40.44v82.01c0,5.18,1.24,7.64,8.31,7.64h.83c7.16,0,8.47-2.57,8.47-7.64v-82.01h40.61v82.01c0,21.63-8.43,47.42-48.58,47.42h-2Z" style="fill:#666; stroke-width:0px;"/><path d="M1110.79,261.08v-126.27h36.27c21.96,0,38.98,5.28,50.56,15.69,11.82,10.62,17.81,26.33,17.81,46.7s-6.03,36.63-17.92,47.64c-11.64,10.78-28.39,16.24-49.78,16.24h-36.94ZM1152.56,223.59c15.24-1.39,22.1-9.59,22.1-26.06s-6.87-23.88-22.1-25.23v51.29Z" style="fill:#666; stroke-width:0px;"/><rect x="1239.69" y="134.81" width="41.1" height="126.27" style="fill:#666; stroke-width:0px;"/><path d="M1370.77,264.57c-43.27,0-65.9-34-65.9-67.59,0-17.32,5.8-33.44,16.33-45.4,11.96-13.58,29.05-20.76,49.41-20.76s37.52,7.21,49.52,20.84c10.56,12,16.38,28.16,16.38,45.52,0,33.49-22.58,67.4-65.74,67.4ZM1370.77,172.76c-18.05,0-26.1,7.59-26.1,24.61s7.71,25.27,25.77,25.27h.67c17.82,0,25.77-7.79,25.77-25.27s-7.81-24.61-26.1-24.61Z" style="fill:#666; stroke-width:0px;"/><path d="M580.18,260.08l-4.99-13.89c-1.01-2.58-1.86-4.33-3.2-5.56-2.93-2.71-7.41-4.17-13.31-4.33h-1.2c-6.07.17-10.63,1.48-13.55,3.9-1.29,1.22-2.26,2.84-3.31,5.55l-5.35,14.33h-42.72l46.06-126.27h39.29l45.16,126.27h-42.88ZM561.37,205l-3.33-10.37-3.38,10.37h6.71Z" style="fill:#666; stroke-width:0px;"/><rect x="641.4" y="133.81" width="41.1" height="126.27" style="fill:#666; stroke-width:0px;"/><path d="M810.9,263.41c-17.9,0-34.84-9.39-35.55-9.79l-2.55-1.43v-36.04h5c5.86,0,11.73,2.76,17.41,5.42,4.95,2.32,10.07,4.73,14.2,4.73,4.74,0,7.14-1.62,7.14-4.81,0-1.79-3.09-4.76-11.76-7.75-10.06-3.62-33.48-12.05-33.48-39.82,0-12.02,4.57-22.86,12.88-30.54,8.18-7.56,19.68-11.72,32.38-11.72,18.32,0,34.74,8.53,35.43,8.89l2.67,1.41v36.13h-5c-5.64,0-11.44-2.64-17.05-5.2-4.98-2.27-10.12-4.61-14.22-4.61-.86,0-5.15.16-5.15,3.32,0,2.52,6.52,4.91,12.28,7.02,1.14.42,2.3.84,3.46,1.28,19.75,7.2,29.7,20.32,29.51,38.99,0,17.87-12.67,44.54-47.58,44.54Z" style="fill:#666; stroke-width:0px;"/><polygon points="899.04 260.08 899.04 171.09 876.42 171.09 876.42 133.81 962.94 133.81 962.94 171.09 940.15 171.09 940.15 260.08 899.04 260.08" style="fill:#666; stroke-width:0px;"/><path d="M1031.46,263.24c-31.01,0-48.08-16.84-48.08-47.42v-82.01h40.44v82.01c0,5.18,1.24,7.64,8.31,7.64h.83c7.16,0,8.47-2.57,8.47-7.64v-82.01h40.61v82.01c0,21.63-8.43,47.42-48.58,47.42h-2Z" style="fill:#666; stroke-width:0px;"/><path d="M1109.79,260.08v-126.27h36.27c21.96,0,38.98,5.28,50.56,15.69,11.82,10.62,17.81,26.33,17.81,46.7s-6.03,36.63-17.92,47.64c-11.64,10.78-28.39,16.24-49.78,16.24h-36.94ZM1151.56,222.59c15.24-1.39,22.1-9.59,22.1-26.06s-6.87-23.88-22.1-25.23v51.29Z" style="fill:#666; stroke-width:0px;"/><rect x="1238.69" y="133.81" width="41.1" height="126.27" style="fill:#666; stroke-width:0px;"/><path d="M1369.77,263.57c-43.27,0-65.9-34-65.9-67.59,0-17.32,5.8-33.44,16.33-45.4,11.96-13.58,29.05-20.76,49.41-20.76s37.52,7.21,49.52,20.84c10.56,12,16.38,28.16,16.38,45.52,0,33.49-22.58,67.4-65.74,67.4ZM1369.77,171.76c-18.05,0-26.1,7.59-26.1,24.61s7.71,25.27,25.77,25.27h.67c17.82,0,25.77-7.79,25.77-25.27s-7.81-24.61-26.1-24.61Z" style="fill:#666; stroke-width:0px;"/><path d="M579.18,259.08l-4.99-13.89c-1.01-2.58-1.86-4.33-3.2-5.56-2.93-2.71-7.41-4.17-13.31-4.33h-1.2c-6.07.17-10.63,1.48-13.55,3.9-1.29,1.22-2.26,2.84-3.31,5.55l-5.35,14.33h-42.72l46.06-126.27h39.29l45.16,126.27h-42.88ZM560.37,204l-3.33-10.37-3.38,10.37h6.71Z" style="fill:#666; stroke-width:0px;"/><rect x="640.4" y="132.81" width="41.1" height="126.27" style="fill:#666; stroke-width:0px;"/><path d="M809.9,262.41c-17.9,0-34.84-9.39-35.55-9.79l-2.55-1.43v-36.04h5c5.86,0,11.73,2.76,17.41,5.42,4.95,2.32,10.07,4.73,14.2,4.73,4.74,0,7.14-1.62,7.14-4.81,0-1.79-3.09-4.76-11.76-7.75-10.06-3.62-33.48-12.05-33.48-39.82,0-12.02,4.57-22.86,12.88-30.54,8.18-7.56,19.68-11.72,32.38-11.72,18.32,0,34.74,8.53,35.43,8.89l2.67,1.41v36.13h-5c-5.64,0-11.44-2.64-17.05-5.2-4.98-2.27-10.12-4.61-14.22-4.61-.86,0-5.15.16-5.15,3.32,0,2.52,6.52,4.91,12.28,7.02,1.14.42,2.3.84,3.46,1.28,19.75,7.2,29.7,20.32,29.51,38.99,0,17.87-12.67,44.54-47.58,44.54Z" style="fill:#666; stroke-width:0px;"/><polygon points="898.04 259.08 898.04 170.09 875.42 170.09 875.42 132.81 961.94 132.81 961.94 170.09 939.15 170.09 939.15 259.08 898.04 259.08" style="fill:#666; stroke-width:0px;"/><path d="M1030.46,262.24c-31.01,0-48.08-16.84-48.08-47.42v-82.01h40.44v82.01c0,5.18,1.24,7.64,8.31,7.64h.83c7.16,0,8.47-2.57,8.47-7.64v-82.01h40.61v82.01c0,21.63-8.43,47.42-48.58,47.42h-2Z" style="fill:#666; stroke-width:0px;"/><path d="M1108.79,259.08v-126.27h36.27c21.96,0,38.98,5.28,50.56,15.69,11.82,10.62,17.81,26.33,17.81,46.7s-6.03,36.63-17.92,47.64c-11.64,10.78-28.39,16.24-49.78,16.24h-36.94ZM1150.56,221.59c15.24-1.39,22.1-9.59,22.1-26.06s-6.87-23.88-22.1-25.23v51.29Z" style="fill:#666; stroke-width:0px;"/><rect x="1237.69" y="132.81" width="41.1" height="126.27" style="fill:#666; stroke-width:0px;"/><path d="M1368.77,262.57c-43.27,0-65.9-34-65.9-67.59,0-17.32,5.8-33.44,16.33-45.4,11.96-13.58,29.05-20.76,49.41-20.76s37.52,7.21,49.52,20.84c10.56,12,16.38,28.16,16.38,45.52,0,33.49-22.58,67.4-65.74,67.4ZM1368.77,170.76c-18.05,0-26.1,7.59-26.1,24.61s7.71,25.27,25.77,25.27h.67c17.82,0,25.77-7.79,25.77-25.27s-7.81-24.61-26.1-24.61Z" style="fill:#666; stroke-width:0px;"/><path d="M578.18,258.08l-4.99-13.89c-1.01-2.58-1.86-4.33-3.2-5.56-2.93-2.71-7.41-4.17-13.31-4.33h-1.2c-6.07.17-10.63,1.48-13.55,3.9-1.29,1.22-2.26,2.84-3.31,5.55l-5.35,14.33h-42.72l46.06-126.27h39.29l45.16,126.27h-42.88ZM559.37,203l-3.33-10.37-3.38,10.37h6.71Z" style="fill:#666; stroke-width:0px;"/><rect x="639.4" y="131.81" width="41.1" height="126.27" style="fill:#666; stroke-width:0px;"/><path d="M808.9,261.41c-17.9,0-34.84-9.39-35.55-9.79l-2.55-1.43v-36.04h5c5.86,0,11.73,2.76,17.41,5.42,4.95,2.32,10.07,4.73,14.2,4.73,4.74,0,7.14-1.62,7.14-4.81,0-1.79-3.09-4.76-11.76-7.75-10.06-3.62-33.48-12.05-33.48-39.82,0-12.02,4.57-22.86,12.88-30.54,8.18-7.56,19.68-11.72,32.38-11.72,18.32,0,34.74,8.53,35.43,8.89l2.67,1.41v36.13h-5c-5.64,0-11.44-2.64-17.05-5.2-4.98-2.27-10.12-4.61-14.22-4.61-.86,0-5.15.16-5.15,3.32,0,2.52,6.52,4.91,12.28,7.02,1.14.42,2.3.84,3.46,1.28,19.75,7.2,29.7,20.32,29.51,38.99,0,17.87-12.67,44.54-47.58,44.54Z" style="fill:#666; stroke-width:0px;"/><polygon points="897.04 258.08 897.04 169.09 874.42 169.09 874.42 131.81 960.94 131.81 960.94 169.09 938.15 169.09 938.15 258.08 897.04 258.08" style="fill:#666; stroke-width:0px;"/><path d="M1029.46,261.24c-31.01,0-48.08-16.84-48.08-47.42v-82.01h40.44v82.01c0,5.18,1.24,7.64,8.31,7.64h.83c7.16,0,8.47-2.57,8.47-7.64v-82.01h40.61v82.01c0,21.63-8.43,47.42-48.58,47.42h-2Z" style="fill:#666; stroke-width:0px;"/><path d="M1107.79,258.08v-126.27h36.27c21.96,0,38.98,5.28,50.56,15.69,11.82,10.62,17.81,26.33,17.81,46.7s-6.03,36.63-17.92,47.64c-11.64,10.78-28.39,16.24-49.78,16.24h-36.94ZM1149.56,220.59c15.24-1.39,22.1-9.59,22.1-26.06s-6.87-23.88-22.1-25.23v51.29Z" style="fill:#666; stroke-width:0px;"/><rect x="1236.69" y="131.81" width="41.1" height="126.27" style="fill:#666; stroke-width:0px;"/><path d="M1367.77,261.57c-43.27,0-65.9-34-65.9-67.59,0-17.32,5.8-33.44,16.33-45.4,11.96-13.58,29.05-20.76,49.41-20.76s37.52,7.21,49.52,20.84c10.56,12,16.38,28.16,16.38,45.52,0,33.49-22.58,67.4-65.74,67.4ZM1367.77,169.76c-18.05,0-26.1,7.59-26.1,24.61s7.71,25.27,25.77,25.27h.67c17.82,0,25.77-7.79,25.77-25.27s-7.81-24.61-26.1-24.61Z" style="fill:#666; stroke-width:0px;"/><path d="M577.18,257.08l-4.99-13.89c-1.01-2.58-1.86-4.33-3.2-5.56-2.93-2.71-7.41-4.17-13.31-4.33h-1.2c-6.07.17-10.63,1.48-13.55,3.9-1.29,1.22-2.26,2.84-3.31,5.55l-5.35,14.33h-42.72l46.06-126.27h39.29l45.16,126.27h-42.88ZM558.37,202l-3.33-10.37-3.38,10.37h6.71Z" style="fill:#666; stroke-width:0px;"/><rect x="638.4" y="130.81" width="41.1" height="126.27" style="fill:#666; stroke-width:0px;"/><path d="M807.9,260.41c-17.9,0-34.84-9.39-35.55-9.79l-2.55-1.43v-36.04h5c5.86,0,11.73,2.76,17.41,5.42,4.95,2.32,10.07,4.73,14.2,4.73,4.74,0,7.14-1.62,7.14-4.81,0-1.79-3.09-4.76-11.76-7.75-10.06-3.62-33.48-12.05-33.48-39.82,0-12.02,4.57-22.86,12.88-30.54,8.18-7.56,19.68-11.72,32.38-11.72,18.32,0,34.74,8.53,35.43,8.89l2.67,1.41v36.13h-5c-5.64,0-11.44-2.64-17.05-5.2-4.98-2.27-10.12-4.61-14.22-4.61-.86,0-5.15.16-5.15,3.32,0,2.52,6.52,4.91,12.28,7.02,1.14.42,2.3.84,3.46,1.28,19.75,7.2,29.7,20.32,29.51,38.99,0,17.87-12.67,44.54-47.58,44.54Z" style="fill:#666; stroke-width:0px;"/><polygon points="896.04 257.08 896.04 168.09 873.42 168.09 873.42 130.81 959.94 130.81 959.94 168.09 937.15 168.09 937.15 257.08 896.04 257.08" style="fill:#666; stroke-width:0px;"/><path d="M1028.46,260.24c-31.01,0-48.08-16.84-48.08-47.42v-82.01h40.44v82.01c0,5.18,1.24,7.64,8.31,7.64h.83c7.16,0,8.47-2.57,8.47-7.64v-82.01h40.61v82.01c0,21.63-8.43,47.42-48.58,47.42h-2Z" style="fill:#666; stroke-width:0px;"/><path d="M1106.79,257.08v-126.27h36.27c21.96,0,38.98,5.28,50.56,15.69,11.82,10.62,17.81,26.33,17.81,46.7s-6.03,36.63-17.92,47.64c-11.64,10.78-28.39,16.24-49.78,16.24h-36.94ZM1148.56,219.59c15.24-1.39,22.1-9.59,22.1-26.06s-6.87-23.88-22.1-25.23v51.29Z" style="fill:#666; stroke-width:0px;"/><rect x="1235.69" y="130.81" width="41.1" height="126.27" style="fill:#666; stroke-width:0px;"/><path d="M1366.77,260.57c-43.27,0-65.9-34-65.9-67.59,0-17.32,5.8-33.44,16.33-45.4,11.96-13.58,29.05-20.76,49.41-20.76s37.52,7.21,49.52,20.84c10.56,12,16.38,28.16,16.38,45.52,0,33.49-22.58,67.4-65.74,67.4ZM1366.77,168.76c-18.05,0-26.1,7.59-26.1,24.61s7.71,25.27,25.77,25.27h.67c17.82,0,25.77-7.79,25.77-25.27s-7.81-24.61-26.1-24.61Z" style="fill:#666; stroke-width:0px;"/><path d="M576.18,256.08l-4.99-13.89c-1.01-2.58-1.86-4.33-3.2-5.56-2.93-2.71-7.41-4.17-13.31-4.33h-1.2c-6.07.17-10.63,1.48-13.55,3.9-1.29,1.22-2.26,2.84-3.31,5.55l-5.35,14.33h-42.72l46.06-126.27h39.29l45.16,126.27h-42.88ZM557.37,201l-3.33-10.37-3.38,10.37h6.71Z" style="fill:#666; stroke-width:0px;"/><rect x="637.4" y="129.81" width="41.1" height="126.27" style="fill:#666; stroke-width:0px;"/><path d="M806.9,259.41c-17.9,0-34.84-9.39-35.55-9.79l-2.55-1.43v-36.04h5c5.86,0,11.73,2.76,17.41,5.42,4.95,2.32,10.07,4.73,14.2,4.73,4.74,0,7.14-1.62,7.14-4.81,0-1.79-3.09-4.76-11.76-7.75-10.06-3.62-33.48-12.05-33.48-39.82,0-12.02,4.57-22.86,12.88-30.54,8.18-7.56,19.68-11.72,32.38-11.72,18.32,0,34.74,8.53,35.43,8.89l2.67,1.41v36.13h-5c-5.64,0-11.44-2.64-17.05-5.2-4.98-2.27-10.12-4.61-14.22-4.61-.86,0-5.15.16-5.15,3.32,0,2.52,6.52,4.91,12.28,7.02,1.14.42,2.3.84,3.46,1.28,19.75,7.2,29.7,20.32,29.51,38.99,0,17.87-12.67,44.54-47.58,44.54Z" style="fill:#666; stroke-width:0px;"/><polygon points="895.04 256.08 895.04 167.09 872.42 167.09 872.42 129.81 958.94 129.81 958.94 167.09 936.15 167.09 936.15 256.08 895.04 256.08" style="fill:#666; stroke-width:0px;"/><path d="M1027.46,259.24c-31.01,0-48.08-16.84-48.08-47.42v-82.01h40.44v82.01c0,5.18,1.24,7.64,8.31,7.64h.83c7.16,0,8.47-2.57,8.47-7.64v-82.01h40.61v82.01c0,21.63-8.43,47.42-48.58,47.42h-2Z" style="fill:#666; stroke-width:0px;"/><path d="M1105.79,256.08v-126.27h36.27c21.96,0,38.98,5.28,50.56,15.69,11.82,10.62,17.81,26.33,17.81,46.7s-6.03,36.63-17.92,47.64c-11.64,10.78-28.39,16.24-49.78,16.24h-36.94ZM1147.56,218.59c15.24-1.39,22.1-9.59,22.1-26.06s-6.87-23.88-22.1-25.23v51.29Z" style="fill:#666; stroke-width:0px;"/><rect x="1234.69" y="129.81" width="41.1" height="126.27" style="fill:#666; stroke-width:0px;"/><path d="M1365.77,259.57c-43.27,0-65.9-34-65.9-67.59,0-17.32,5.8-33.44,16.33-45.4,11.96-13.58,29.05-20.76,49.41-20.76s37.52,7.21,49.52,20.84c10.56,12,16.38,28.16,16.38,45.52,0,33.49-22.58,67.4-65.74,67.4ZM1365.77,167.76c-18.05,0-26.1,7.59-26.1,24.61s7.71,25.27,25.77,25.27h.67c17.82,0,25.77-7.79,25.77-25.27s-7.81-24.61-26.1-24.61Z" style="fill:#666; stroke-width:0px;"/><path d="M575.18,255.08l-4.99-13.89c-1.01-2.58-1.86-4.33-3.2-5.56-2.93-2.71-7.41-4.17-13.31-4.33h-1.2c-6.07.17-10.63,1.48-13.55,3.9-1.29,1.22-2.26,2.84-3.31,5.55l-5.35,14.33h-42.72l46.06-126.27h39.29l45.16,126.27h-42.88ZM556.37,200l-3.33-10.37-3.38,10.37h6.71Z" style="fill:#666; stroke-width:0px;"/><rect x="636.4" y="128.81" width="41.1" height="126.27" style="fill:#666; stroke-width:0px;"/><path d="M805.9,258.41c-17.9,0-34.84-9.39-35.55-9.79l-2.55-1.43v-36.04h5c5.86,0,11.73,2.76,17.41,5.42,4.95,2.32,10.07,4.73,14.2,4.73,4.74,0,7.14-1.62,7.14-4.81,0-1.79-3.09-4.76-11.76-7.75-10.06-3.62-33.48-12.05-33.48-39.82,0-12.02,4.57-22.86,12.88-30.54,8.18-7.56,19.68-11.72,32.38-11.72,18.32,0,34.74,8.53,35.43,8.89l2.67,1.41v36.13h-5c-5.64,0-11.44-2.64-17.05-5.2-4.98-2.27-10.12-4.61-14.22-4.61-.86,0-5.15.16-5.15,3.32,0,2.52,6.52,4.91,12.28,7.02,1.14.42,2.3.84,3.46,1.28,19.75,7.2,29.7,20.32,29.51,38.99,0,17.87-12.67,44.54-47.58,44.54Z" style="fill:#666; stroke-width:0px;"/><polygon points="894.04 255.08 894.04 166.09 871.42 166.09 871.42 128.81 957.94 128.81 957.94 166.09 935.15 166.09 935.15 255.08 894.04 255.08" style="fill:#666; stroke-width:0px;"/><path d="M1026.46,258.24c-31.01,0-48.08-16.84-48.08-47.42v-82.01h40.44v82.01c0,5.18,1.24,7.64,8.31,7.64h.83c7.16,0,8.47-2.57,8.47-7.64v-82.01h40.61v82.01c0,21.63-8.43,47.42-48.58,47.42h-2Z" style="fill:#666; stroke-width:0px;"/><path d="M1104.79,255.08v-126.27h36.27c21.96,0,38.98,5.28,50.56,15.69,11.82,10.62,17.81,26.33,17.81,46.7s-6.03,36.63-17.92,47.64c-11.64,10.78-28.39,16.24-49.78,16.24h-36.94ZM1146.56,217.59c15.24-1.39,22.1-9.59,22.1-26.06s-6.87-23.88-22.1-25.23v51.29Z" style="fill:#666; stroke-width:0px;"/><rect x="1233.69" y="128.81" width="41.1" height="126.27" style="fill:#666; stroke-width:0px;"/><path d="M1364.77,258.57c-43.27,0-65.9-34-65.9-67.59,0-17.32,5.8-33.44,16.33-45.4,11.96-13.58,29.05-20.76,49.41-20.76s37.52,7.21,49.52,20.84c10.56,12,16.38,28.16,16.38,45.52,0,33.49-22.58,67.4-65.74,67.4ZM1364.77,166.76c-18.05,0-26.1,7.59-26.1,24.61s7.71,25.27,25.77,25.27h.67c17.82,0,25.77-7.79,25.77-25.27s-7.81-24.61-26.1-24.61Z" style="fill:#666; stroke-width:0px;"/><path d="M574.18,254.08l-4.99-13.89c-1.01-2.58-1.86-4.33-3.2-5.56-2.93-2.71-7.41-4.17-13.31-4.33h-1.2c-6.07.17-10.63,1.48-13.55,3.9-1.29,1.22-2.26,2.84-3.31,5.55l-5.35,14.33h-42.72l46.06-126.27h39.29l45.16,126.27h-42.88ZM555.37,199l-3.33-10.37-3.38,10.37h6.71Z" style="fill:#666; stroke-width:0px;"/><rect x="635.4" y="127.81" width="41.1" height="126.27" style="fill:#666; stroke-width:0px;"/><path d="M804.9,257.41c-17.9,0-34.84-9.39-35.55-9.79l-2.55-1.43v-36.04h5c5.86,0,11.73,2.76,17.41,5.42,4.95,2.32,10.07,4.73,14.2,4.73,4.74,0,7.14-1.62,7.14-4.81,0-1.79-3.09-4.76-11.76-7.75-10.06-3.62-33.48-12.05-33.48-39.82,0-12.02,4.57-22.86,12.88-30.54,8.18-7.56,19.68-11.72,32.38-11.72,18.32,0,34.74,8.53,35.43,8.89l2.67,1.41v36.13h-5c-5.64,0-11.44-2.64-17.05-5.2-4.98-2.27-10.12-4.61-14.22-4.61-.86,0-5.15.16-5.15,3.32,0,2.52,6.52,4.91,12.28,7.02,1.14.42,2.3.84,3.46,1.28,19.75,7.2,29.7,20.32,29.51,38.99,0,17.87-12.67,44.54-47.58,44.54Z" style="fill:#666; stroke-width:0px;"/><polygon points="893.04 254.08 893.04 165.09 870.42 165.09 870.42 127.81 956.94 127.81 956.94 165.09 934.15 165.09 934.15 254.08 893.04 254.08" style="fill:#666; stroke-width:0px;"/><path d="M1025.46,257.24c-31.01,0-48.08-16.84-48.08-47.42v-82.01h40.44v82.01c0,5.18,1.24,7.64,8.31,7.64h.83c7.16,0,8.47-2.57,8.47-7.64v-82.01h40.61v82.01c0,21.63-8.43,47.42-48.58,47.42h-2Z" style="fill:#666; stroke-width:0px;"/><path d="M1103.79,254.08v-126.27h36.27c21.96,0,38.98,5.28,50.56,15.69,11.82,10.62,17.81,26.33,17.81,46.7s-6.03,36.63-17.92,47.64c-11.64,10.78-28.39,16.24-49.78,16.24h-36.94ZM1145.56,216.59c15.24-1.39,22.1-9.59,22.1-26.06s-6.87-23.88-22.1-25.23v51.29Z" style="fill:#666; stroke-width:0px;"/><rect x="1232.69" y="127.81" width="41.1" height="126.27" style="fill:#666; stroke-width:0px;"/><path d="M1363.77,257.57c-43.27,0-65.9-34-65.9-67.59,0-17.32,5.8-33.44,16.33-45.4,11.96-13.58,29.05-20.76,49.41-20.76s37.52,7.21,49.52,20.84c10.56,12,16.38,28.16,16.38,45.52,0,33.49-22.58,67.4-65.74,67.4ZM1363.77,165.76c-18.05,0-26.1,7.59-26.1,24.61s7.71,25.27,25.77,25.27h.67c17.82,0,25.77-7.79,25.77-25.27s-7.81-24.61-26.1-24.61Z" style="fill:#666; stroke-width:0px;"/><path d="M573.18,253.08l-4.99-13.89c-1.01-2.58-1.86-4.33-3.2-5.56-2.93-2.71-7.41-4.17-13.31-4.33h-1.2c-6.07.17-10.63,1.48-13.55,3.9-1.29,1.22-2.26,2.84-3.31,5.55l-5.35,14.33h-42.72l46.06-126.27h39.29l45.16,126.27h-42.88ZM554.37,198l-3.33-10.37-3.38,10.37h6.71Z" style="fill:#666; stroke-width:0px;"/><rect x="634.4" y="126.81" width="41.1" height="126.27" style="fill:#666; stroke-width:0px;"/><path d="M803.9,256.41c-17.9,0-34.84-9.39-35.55-9.79l-2.55-1.43v-36.04h5c5.86,0,11.73,2.76,17.41,5.42,4.95,2.32,10.07,4.73,14.2,4.73,4.74,0,7.14-1.62,7.14-4.81,0-1.79-3.09-4.76-11.76-7.75-10.06-3.62-33.48-12.05-33.48-39.82,0-12.02,4.57-22.86,12.88-30.54,8.18-7.56,19.68-11.72,32.38-11.72,18.32,0,34.74,8.53,35.43,8.89l2.67,1.41v36.13h-5c-5.64,0-11.44-2.64-17.05-5.2-4.98-2.27-10.12-4.61-14.22-4.61-.86,0-5.15.16-5.15,3.32,0,2.52,6.52,4.91,12.28,7.02,1.14.42,2.3.84,3.46,1.28,19.75,7.2,29.7,20.32,29.51,38.99,0,17.87-12.67,44.54-47.58,44.54Z" style="fill:#666; stroke-width:0px;"/><polygon points="892.04 253.08 892.04 164.09 869.42 164.09 869.42 126.81 955.94 126.81 955.94 164.09 933.15 164.09 933.15 253.08 892.04 253.08" style="fill:#666; stroke-width:0px;"/><path d="M1024.46,256.24c-31.01,0-48.08-16.84-48.08-47.42v-82.01h40.44v82.01c0,5.18,1.24,7.64,8.31,7.64h.83c7.16,0,8.47-2.57,8.47-7.64v-82.01h40.61v82.01c0,21.63-8.43,47.42-48.58,47.42h-2Z" style="fill:#666; stroke-width:0px;"/><path d="M1102.79,253.08v-126.27h36.27c21.96,0,38.98,5.28,50.56,15.69,11.82,10.62,17.81,26.33,17.81,46.7s-6.03,36.63-17.92,47.64c-11.64,10.78-28.39,16.24-49.78,16.24h-36.94ZM1144.56,215.59c15.24-1.39,22.1-9.59,22.1-26.06s-6.87-23.88-22.1-25.23v51.29Z" style="fill:#666; stroke-width:0px;"/><rect x="1231.69" y="126.81" width="41.1" height="126.27" style="fill:#666; stroke-width:0px;"/><path d="M1362.77,256.57c-43.27,0-65.9-34-65.9-67.59,0-17.32,5.8-33.44,16.33-45.4,11.96-13.58,29.05-20.76,49.41-20.76s37.52,7.21,49.52,20.84c10.56,12,16.38,28.16,16.38,45.52,0,33.49-22.58,67.4-65.74,67.4ZM1362.77,164.76c-18.05,0-26.1,7.59-26.1,24.61s7.71,25.27,25.77,25.27h.67c17.82,0,25.77-7.79,25.77-25.27s-7.81-24.61-26.1-24.61Z" style="fill:#666; stroke-width:0px;"/><path d="M583.18,263.08l-4.99-13.89c-1.01-2.58-1.86-4.33-3.2-5.56-2.93-2.71-7.41-4.17-13.31-4.33h-1.2c-6.07.17-10.63,1.48-13.55,3.9-1.29,1.22-2.26,2.84-3.31,5.55l-5.35,14.33h-42.72l46.06-126.27h39.29l45.16,126.27h-42.88ZM564.37,208l-3.33-10.37-3.38,10.37h6.71Z" style="fill:#1a1a1a; stroke-width:0px;"/><rect x="644.4" y="136.81" width="41.1" height="126.27" style="fill:#1a1a1a; stroke-width:0px;"/><path d="M813.9,266.41c-17.9,0-34.84-9.39-35.55-9.79l-2.55-1.43v-36.04h5c5.86,0,11.73,2.76,17.41,5.42,4.95,2.32,10.07,4.73,14.2,4.73,4.74,0,7.14-1.62,7.14-4.81,0-1.79-3.09-4.76-11.76-7.75-10.06-3.62-33.48-12.05-33.48-39.82,0-12.02,4.57-22.86,12.88-30.54,8.18-7.56,19.68-11.72,32.38-11.72,18.32,0,34.74,8.53,35.43,8.89l2.67,1.41v36.13h-5c-5.64,0-11.44-2.64-17.05-5.2-4.98-2.27-10.12-4.61-14.22-4.61-.86,0-5.15.16-5.15,3.32,0,2.52,6.52,4.91,12.28,7.02,1.14.42,2.3.84,3.46,1.28,19.75,7.2,29.7,20.32,29.51,38.99,0,17.87-12.67,44.54-47.58,44.54Z" style="fill:#1a1a1a; stroke-width:0px;"/><polygon points="902.04 263.08 902.04 174.09 879.42 174.09 879.42 136.81 965.94 136.81 965.94 174.09 943.15 174.09 943.15 263.08 902.04 263.08" style="fill:#1a1a1a; stroke-width:0px;"/><path d="M1034.46,266.24c-31.01,0-48.08-16.84-48.08-47.42v-82.01h40.44v82.01c0,5.18,1.24,7.64,8.31,7.64h.83c7.16,0,8.47-2.57,8.47-7.64v-82.01h40.61v82.01c0,21.63-8.43,47.42-48.58,47.42h-2Z" style="fill:#1a1a1a; stroke-width:0px;"/><path d="M1112.79,263.08v-126.27h36.27c21.96,0,38.98,5.28,50.56,15.69,11.82,10.62,17.81,26.33,17.81,46.7s-6.03,36.63-17.92,47.64c-11.64,10.78-28.39,16.24-49.78,16.24h-36.94ZM1154.56,225.59c15.24-1.39,22.1-9.59,22.1-26.06s-6.87-23.88-22.1-25.23v51.29Z" style="fill:#1a1a1a; stroke-width:0px;"/><rect x="1241.69" y="136.81" width="41.1" height="126.27" style="fill:#1a1a1a; stroke-width:0px;"/><path d="M1372.77,266.57c-43.27,0-65.9-34-65.9-67.59,0-17.32,5.8-33.44,16.33-45.4,11.96-13.58,29.05-20.76,49.41-20.76s37.52,7.21,49.52,20.84c10.56,12,16.38,28.16,16.38,45.52,0,33.49-22.58,67.4-65.74,67.4ZM1372.77,174.76c-18.05,0-26.1,7.59-26.1,24.61s7.71,25.27,25.77,25.27h.67c17.82,0,25.77-7.79,25.77-25.27s-7.81-24.61-26.1-24.61Z" style="fill:#1a1a1a; stroke-width:0px;"/><path d="M582.18,262.08l-4.99-13.89c-1.01-2.58-1.86-4.33-3.2-5.56-2.93-2.71-7.41-4.17-13.31-4.33h-1.2c-6.07.17-10.63,1.48-13.55,3.9-1.29,1.22-2.26,2.84-3.31,5.55l-5.35,14.33h-42.72l46.06-126.27h39.29l45.16,126.27h-42.88ZM563.37,207l-3.33-10.37-3.38,10.37h6.71Z" style="fill:#1a1a1a; stroke-width:0px;"/><rect x="643.4" y="135.81" width="41.1" height="126.27" style="fill:#1a1a1a; stroke-width:0px;"/><path d="M812.9,265.41c-17.9,0-34.84-9.39-35.55-9.79l-2.55-1.43v-36.04h5c5.86,0,11.73,2.76,17.41,5.42,4.95,2.32,10.07,4.73,14.2,4.73,4.74,0,7.14-1.62,7.14-4.81,0-1.79-3.09-4.76-11.76-7.75-10.06-3.62-33.48-12.05-33.48-39.82,0-12.02,4.57-22.86,12.88-30.54,8.18-7.56,19.68-11.72,32.38-11.72,18.32,0,34.74,8.53,35.43,8.89l2.67,1.41v36.13h-5c-5.64,0-11.44-2.64-17.05-5.2-4.98-2.27-10.12-4.61-14.22-4.61-.86,0-5.15.16-5.15,3.32,0,2.52,6.52,4.91,12.28,7.02,1.14.42,2.3.84,3.46,1.28,19.75,7.2,29.7,20.32,29.51,38.99,0,17.87-12.67,44.54-47.58,44.54Z" style="fill:#1a1a1a; stroke-width:0px;"/><polygon points="901.04 262.08 901.04 173.09 878.42 173.09 878.42 135.81 964.94 135.81 964.94 173.09 942.15 173.09 942.15 262.08 901.04 262.08" style="fill:#1a1a1a; stroke-width:0px;"/><path d="M1033.46,265.24c-31.01,0-48.08-16.84-48.08-47.42v-82.01h40.44v82.01c0,5.18,1.24,7.64,8.31,7.64h.83c7.16,0,8.47-2.57,8.47-7.64v-82.01h40.61v82.01c0,21.63-8.43,47.42-48.58,47.42h-2Z" style="fill:#1a1a1a; stroke-width:0px;"/><path d="M1111.79,262.08v-126.27h36.27c21.96,0,38.98,5.28,50.56,15.69,11.82,10.62,17.81,26.33,17.81,46.7s-6.03,36.63-17.92,47.64c-11.64,10.78-28.39,16.24-49.78,16.24h-36.94ZM1153.56,224.59c15.24-1.39,22.1-9.59,22.1-26.06s-6.87-23.88-22.1-25.23v51.29Z" style="fill:#1a1a1a; stroke-width:0px;"/><rect x="1240.69" y="135.81" width="41.1" height="126.27" style="fill:#1a1a1a; stroke-width:0px;"/><path d="M1371.77,265.57c-43.27,0-65.9-34-65.9-67.59,0-17.32,5.8-33.44,16.33-45.4,11.96-13.58,29.05-20.76,49.41-20.76s37.52,7.21,49.52,20.84c10.56,12,16.38,28.16,16.38,45.52,0,33.49-22.58,67.4-65.74,67.4ZM1371.77,173.76c-18.05,0-26.1,7.59-26.1,24.61s7.71,25.27,25.77,25.27h.67c17.82,0,25.77-7.79,25.77-25.27s-7.81-24.61-26.1-24.61Z" style="fill:#1a1a1a; stroke-width:0px;"/><path d="M581.18,261.08l-4.99-13.89c-1.01-2.58-1.86-4.33-3.2-5.56-2.93-2.71-7.41-4.17-13.31-4.33h-1.2c-6.07.17-10.63,1.48-13.55,3.9-1.29,1.22-2.26,2.84-3.31,5.55l-5.35,14.33h-42.72l46.06-126.27h39.29l45.16,126.27h-42.88ZM562.37,206l-3.33-10.37-3.38,10.37h6.71Z" style="fill:#1a1a1a; stroke-width:0px;"/><rect x="642.4" y="134.81" width="41.1" height="126.27" style="fill:#1a1a1a; stroke-width:0px;"/><path d="M811.9,264.41c-17.9,0-34.84-9.39-35.55-9.79l-2.55-1.43v-36.04h5c5.86,0,11.73,2.76,17.41,5.42,4.95,2.32,10.07,4.73,14.2,4.73,4.74,0,7.14-1.62,7.14-4.81,0-1.79-3.09-4.76-11.76-7.75-10.06-3.62-33.48-12.05-33.48-39.82,0-12.02,4.57-22.86,12.88-30.54,8.18-7.56,19.68-11.72,32.38-11.72,18.32,0,34.74,8.53,35.43,8.89l2.67,1.41v36.13h-5c-5.64,0-11.44-2.64-17.05-5.2-4.98-2.27-10.12-4.61-14.22-4.61-.86,0-5.15.16-5.15,3.32,0,2.52,6.52,4.91,12.28,7.02,1.14.42,2.3.84,3.46,1.28,19.75,7.2,29.7,20.32,29.51,38.99,0,17.87-12.67,44.54-47.58,44.54Z" style="fill:#1a1a1a; stroke-width:0px;"/><polygon points="900.04 261.08 900.04 172.09 877.42 172.09 877.42 134.81 963.94 134.81 963.94 172.09 941.15 172.09 941.15 261.08 900.04 261.08" style="fill:#1a1a1a; stroke-width:0px;"/><path d="M1032.46,264.24c-31.01,0-48.08-16.84-48.08-47.42v-82.01h40.44v82.01c0,5.18,1.24,7.64,8.31,7.64h.83c7.16,0,8.47-2.57,8.47-7.64v-82.01h40.61v82.01c0,21.63-8.43,47.42-48.58,47.42h-2Z" style="fill:#1a1a1a; stroke-width:0px;"/><path d="M1110.79,261.08v-126.27h36.27c21.96,0,38.98,5.28,50.56,15.69,11.82,10.62,17.81,26.33,17.81,46.7s-6.03,36.63-17.92,47.64c-11.64,10.78-28.39,16.24-49.78,16.24h-36.94ZM1152.56,223.59c15.24-1.39,22.1-9.59,22.1-26.06s-6.87-23.88-22.1-25.23v51.29Z" style="fill:#1a1a1a; stroke-width:0px;"/><rect x="1239.69" y="134.81" width="41.1" height="126.27" style="fill:#1a1a1a; stroke-width:0px;"/><path d="M1370.77,264.57c-43.27,0-65.9-34-65.9-67.59,0-17.32,5.8-33.44,16.33-45.4,11.96-13.58,29.05-20.76,49.41-20.76s37.52,7.21,49.52,20.84c10.56,12,16.38,28.16,16.38,45.52,0,33.49-22.58,67.4-65.74,67.4ZM1370.77,172.76c-18.05,0-26.1,7.59-26.1,24.61s7.71,25.27,25.77,25.27h.67c17.82,0,25.77-7.79,25.77-25.27s-7.81-24.61-26.1-24.61Z" style="fill:#1a1a1a; stroke-width:0px;"/><path d="M580.18,260.08l-4.99-13.89c-1.01-2.58-1.86-4.33-3.2-5.56-2.93-2.71-7.41-4.17-13.31-4.33h-1.2c-6.07.17-10.63,1.48-13.55,3.9-1.29,1.22-2.26,2.84-3.31,5.55l-5.35,14.33h-42.72l46.06-126.27h39.29l45.16,126.27h-42.88ZM561.37,205l-3.33-10.37-3.38,10.37h6.71Z" style="fill:#1a1a1a; stroke-width:0px;"/><rect x="641.4" y="133.81" width="41.1" height="126.27" style="fill:#1a1a1a; stroke-width:0px;"/><path d="M810.9,263.41c-17.9,0-34.84-9.39-35.55-9.79l-2.55-1.43v-36.04h5c5.86,0,11.73,2.76,17.41,5.42,4.95,2.32,10.07,4.73,14.2,4.73,4.74,0,7.14-1.62,7.14-4.81,0-1.79-3.09-4.76-11.76-7.75-10.06-3.62-33.48-12.05-33.48-39.82,0-12.02,4.57-22.86,12.88-30.54,8.18-7.56,19.68-11.72,32.38-11.72,18.32,0,34.74,8.53,35.43,8.89l2.67,1.41v36.13h-5c-5.64,0-11.44-2.64-17.05-5.2-4.98-2.27-10.12-4.61-14.22-4.61-.86,0-5.15.16-5.15,3.32,0,2.52,6.52,4.91,12.28,7.02,1.14.42,2.3.84,3.46,1.28,19.75,7.2,29.7,20.32,29.51,38.99,0,17.87-12.67,44.54-47.58,44.54Z" style="fill:#1a1a1a; stroke-width:0px;"/><polygon points="899.04 260.08 899.04 171.09 876.42 171.09 876.42 133.81 962.94 133.81 962.94 171.09 940.15 171.09 940.15 260.08 899.04 260.08" style="fill:#1a1a1a; stroke-width:0px;"/><path d="M1031.46,263.24c-31.01,0-48.08-16.84-48.08-47.42v-82.01h40.44v82.01c0,5.18,1.24,7.64,8.31,7.64h.83c7.16,0,8.47-2.57,8.47-7.64v-82.01h40.61v82.01c0,21.63-8.43,47.42-48.58,47.42h-2Z" style="fill:#1a1a1a; stroke-width:0px;"/><path d="M1109.79,260.08v-126.27h36.27c21.96,0,38.98,5.28,50.56,15.69,11.82,10.62,17.81,26.33,17.81,46.7s-6.03,36.63-17.92,47.64c-11.64,10.78-28.39,16.24-49.78,16.24h-36.94ZM1151.56,222.59c15.24-1.39,22.1-9.59,22.1-26.06s-6.87-23.88-22.1-25.23v51.29Z" style="fill:#1a1a1a; stroke-width:0px;"/><rect x="1238.69" y="133.81" width="41.1" height="126.27" style="fill:#1a1a1a; stroke-width:0px;"/><path d="M1369.77,263.57c-43.27,0-65.9-34-65.9-67.59,0-17.32,5.8-33.44,16.33-45.4,11.96-13.58,29.05-20.76,49.41-20.76s37.52,7.21,49.52,20.84c10.56,12,16.38,28.16,16.38,45.52,0,33.49-22.58,67.4-65.74,67.4ZM1369.77,171.76c-18.05,0-26.1,7.59-26.1,24.61s7.71,25.27,25.77,25.27h.67c17.82,0,25.77-7.79,25.77-25.27s-7.81-24.61-26.1-24.61Z" style="fill:#1a1a1a; stroke-width:0px;"/><path d="M579.18,259.08l-4.99-13.89c-1.01-2.58-1.86-4.33-3.2-5.56-2.93-2.71-7.41-4.17-13.31-4.33h-1.2c-6.07.17-10.63,1.48-13.55,3.9-1.29,1.22-2.26,2.84-3.31,5.55l-5.35,14.33h-42.72l46.06-126.27h39.29l45.16,126.27h-42.88ZM560.37,204l-3.33-10.37-3.38,10.37h6.71Z" style="fill:#1a1a1a; stroke-width:0px;"/><rect x="640.4" y="132.81" width="41.1" height="126.27" style="fill:#1a1a1a; stroke-width:0px;"/><path d="M809.9,262.41c-17.9,0-34.84-9.39-35.55-9.79l-2.55-1.43v-36.04h5c5.86,0,11.73,2.76,17.41,5.42,4.95,2.32,10.07,4.73,14.2,4.73,4.74,0,7.14-1.62,7.14-4.81,0-1.79-3.09-4.76-11.76-7.75-10.06-3.62-33.48-12.05-33.48-39.82,0-12.02,4.57-22.86,12.88-30.54,8.18-7.56,19.68-11.72,32.38-11.72,18.32,0,34.74,8.53,35.43,8.89l2.67,1.41v36.13h-5c-5.64,0-11.44-2.64-17.05-5.2-4.98-2.27-10.12-4.61-14.22-4.61-.86,0-5.15.16-5.15,3.32,0,2.52,6.52,4.91,12.28,7.02,1.14.42,2.3.84,3.46,1.28,19.75,7.2,29.7,20.32,29.51,38.99,0,17.87-12.67,44.54-47.58,44.54Z" style="fill:#1a1a1a; stroke-width:0px;"/><polygon points="898.04 259.08 898.04 170.09 875.42 170.09 875.42 132.81 961.94 132.81 961.94 170.09 939.15 170.09 939.15 259.08 898.04 259.08" style="fill:#1a1a1a; stroke-width:0px;"/><path d="M1030.46,262.24c-31.01,0-48.08-16.84-48.08-47.42v-82.01h40.44v82.01c0,5.18,1.24,7.64,8.31,7.64h.83c7.16,0,8.47-2.57,8.47-7.64v-82.01h40.61v82.01c0,21.63-8.43,47.42-48.58,47.42h-2Z" style="fill:#1a1a1a; stroke-width:0px;"/><path d="M1108.79,259.08v-126.27h36.27c21.96,0,38.98,5.28,50.56,15.69,11.82,10.62,17.81,26.33,17.81,46.7s-6.03,36.63-17.92,47.64c-11.64,10.78-28.39,16.24-49.78,16.24h-36.94ZM1150.56,221.59c15.24-1.39,22.1-9.59,22.1-26.06s-6.87-23.88-22.1-25.23v51.29Z" style="fill:#1a1a1a; stroke-width:0px;"/><rect x="1237.69" y="132.81" width="41.1" height="126.27" style="fill:#1a1a1a; stroke-width:0px;"/><path d="M1368.77,262.57c-43.27,0-65.9-34-65.9-67.59,0-17.32,5.8-33.44,16.33-45.4,11.96-13.58,29.05-20.76,49.41-20.76s37.52,7.21,49.52,20.84c10.56,12,16.38,28.16,16.38,45.52,0,33.49-22.58,67.4-65.74,67.4ZM1368.77,170.76c-18.05,0-26.1,7.59-26.1,24.61s7.71,25.27,25.77,25.27h.67c17.82,0,25.77-7.79,25.77-25.27s-7.81-24.61-26.1-24.61Z" style="fill:#1a1a1a; stroke-width:0px;"/><path d="M578.18,258.08l-4.99-13.89c-1.01-2.58-1.86-4.33-3.2-5.56-2.93-2.71-7.41-4.17-13.31-4.33h-1.2c-6.07.17-10.63,1.48-13.55,3.9-1.29,1.22-2.26,2.84-3.31,5.55l-5.35,14.33h-42.72l46.06-126.27h39.29l45.16,126.27h-42.88ZM559.37,203l-3.33-10.37-3.38,10.37h6.71Z" style="fill:#1a1a1a; stroke-width:0px;"/><rect x="639.4" y="131.81" width="41.1" height="126.27" style="fill:#1a1a1a; stroke-width:0px;"/><path d="M808.9,261.41c-17.9,0-34.84-9.39-35.55-9.79l-2.55-1.43v-36.04h5c5.86,0,11.73,2.76,17.41,5.42,4.95,2.32,10.07,4.73,14.2,4.73,4.74,0,7.14-1.62,7.14-4.81,0-1.79-3.09-4.76-11.76-7.75-10.06-3.62-33.48-12.05-33.48-39.82,0-12.02,4.57-22.86,12.88-30.54,8.18-7.56,19.68-11.72,32.38-11.72,18.32,0,34.74,8.53,35.43,8.89l2.67,1.41v36.13h-5c-5.64,0-11.44-2.64-17.05-5.2-4.98-2.27-10.12-4.61-14.22-4.61-.86,0-5.15.16-5.15,3.32,0,2.52,6.52,4.91,12.28,7.02,1.14.42,2.3.84,3.46,1.28,19.75,7.2,29.7,20.32,29.51,38.99,0,17.87-12.67,44.54-47.58,44.54Z" style="fill:#1a1a1a; stroke-width:0px;"/><polygon points="897.04 258.08 897.04 169.09 874.42 169.09 874.42 131.81 960.94 131.81 960.94 169.09 938.15 169.09 938.15 258.08 897.04 258.08" style="fill:#1a1a1a; stroke-width:0px;"/><path d="M1029.46,261.24c-31.01,0-48.08-16.84-48.08-47.42v-82.01h40.44v82.01c0,5.18,1.24,7.64,8.31,7.64h.83c7.16,0,8.47-2.57,8.47-7.64v-82.01h40.61v82.01c0,21.63-8.43,47.42-48.58,47.42h-2Z" style="fill:#1a1a1a; stroke-width:0px;"/><path d="M1107.79,258.08v-126.27h36.27c21.96,0,38.98,5.28,50.56,15.69,11.82,10.62,17.81,26.33,17.81,46.7s-6.03,36.63-17.92,47.64c-11.64,10.78-28.39,16.24-49.78,16.24h-36.94ZM1149.56,220.59c15.24-1.39,22.1-9.59,22.1-26.06s-6.87-23.88-22.1-25.23v51.29Z" style="fill:#1a1a1a; stroke-width:0px;"/><rect x="1236.69" y="131.81" width="41.1" height="126.27" style="fill:#1a1a1a; stroke-width:0px;"/><path d="M1367.77,261.57c-43.27,0-65.9-34-65.9-67.59,0-17.32,5.8-33.44,16.33-45.4,11.96-13.58,29.05-20.76,49.41-20.76s37.52,7.21,49.52,20.84c10.56,12,16.38,28.16,16.38,45.52,0,33.49-22.58,67.4-65.74,67.4ZM1367.77,169.76c-18.05,0-26.1,7.59-26.1,24.61s7.71,25.27,25.77,25.27h.67c17.82,0,25.77-7.79,25.77-25.27s-7.81-24.61-26.1-24.61Z" style="fill:#1a1a1a; stroke-width:0px;"/><path d="M577.18,257.08l-4.99-13.89c-1.01-2.58-1.86-4.33-3.2-5.56-2.93-2.71-7.41-4.17-13.31-4.33h-1.2c-6.07.17-10.63,1.48-13.55,3.9-1.29,1.22-2.26,2.84-3.31,5.55l-5.35,14.33h-42.72l46.06-126.27h39.29l45.16,126.27h-42.88ZM558.37,202l-3.33-10.37-3.38,10.37h6.71Z" style="fill:#1a1a1a; stroke-width:0px;"/><rect x="638.4" y="130.81" width="41.1" height="126.27" style="fill:#1a1a1a; stroke-width:0px;"/><path d="M807.9,260.41c-17.9,0-34.84-9.39-35.55-9.79l-2.55-1.43v-36.04h5c5.86,0,11.73,2.76,17.41,5.42,4.95,2.32,10.07,4.73,14.2,4.73,4.74,0,7.14-1.62,7.14-4.81,0-1.79-3.09-4.76-11.76-7.75-10.06-3.62-33.48-12.05-33.48-39.82,0-12.02,4.57-22.86,12.88-30.54,8.18-7.56,19.68-11.72,32.38-11.72,18.32,0,34.74,8.53,35.43,8.89l2.67,1.41v36.13h-5c-5.64,0-11.44-2.64-17.05-5.2-4.98-2.27-10.12-4.61-14.22-4.61-.86,0-5.15.16-5.15,3.32,0,2.52,6.52,4.91,12.28,7.02,1.14.42,2.3.84,3.46,1.28,19.75,7.2,29.7,20.32,29.51,38.99,0,17.87-12.67,44.54-47.58,44.54Z" style="fill:#1a1a1a; stroke-width:0px;"/><polygon points="896.04 257.08 896.04 168.09 873.42 168.09 873.42 130.81 959.94 130.81 959.94 168.09 937.15 168.09 937.15 257.08 896.04 257.08" style="fill:#1a1a1a; stroke-width:0px;"/><path d="M1028.46,260.24c-31.01,0-48.08-16.84-48.08-47.42v-82.01h40.44v82.01c0,5.18,1.24,7.64,8.31,7.64h.83c7.16,0,8.47-2.57,8.47-7.64v-82.01h40.61v82.01c0,21.63-8.43,47.42-48.58,47.42h-2Z" style="fill:#1a1a1a; stroke-width:0px;"/><path d="M1106.79,257.08v-126.27h36.27c21.96,0,38.98,5.28,50.56,15.69,11.82,10.62,17.81,26.33,17.81,46.7s-6.03,36.63-17.92,47.64c-11.64,10.78-28.39,16.24-49.78,16.24h-36.94ZM1148.56,219.59c15.24-1.39,22.1-9.59,22.1-26.06s-6.87-23.88-22.1-25.23v51.29Z" style="fill:#1a1a1a; stroke-width:0px;"/><rect x="1235.69" y="130.81" width="41.1" height="126.27" style="fill:#1a1a1a; stroke-width:0px;"/><path d="M1366.77,260.57c-43.27,0-65.9-34-65.9-67.59,0-17.32,5.8-33.44,16.33-45.4,11.96-13.58,29.05-20.76,49.41-20.76s37.52,7.21,49.52,20.84c10.56,12,16.38,28.16,16.38,45.52,0,33.49-22.58,67.4-65.74,67.4ZM1366.77,168.76c-18.05,0-26.1,7.59-26.1,24.61s7.71,25.27,25.77,25.27h.67c17.82,0,25.77-7.79,25.77-25.27s-7.81-24.61-26.1-24.61Z" style="fill:#1a1a1a; stroke-width:0px;"/><path d="M576.18,256.08l-4.99-13.89c-1.01-2.58-1.86-4.33-3.2-5.56-2.93-2.71-7.41-4.17-13.31-4.33h-1.2c-6.07.17-10.63,1.48-13.55,3.9-1.29,1.22-2.26,2.84-3.31,5.55l-5.35,14.33h-42.72l46.06-126.27h39.29l45.16,126.27h-42.88ZM557.37,201l-3.33-10.37-3.38,10.37h6.71Z" style="fill:#1a1a1a; stroke-width:0px;"/><rect x="637.4" y="129.81" width="41.1" height="126.27" style="fill:#1a1a1a; stroke-width:0px;"/><path d="M806.9,259.41c-17.9,0-34.84-9.39-35.55-9.79l-2.55-1.43v-36.04h5c5.86,0,11.73,2.76,17.41,5.42,4.95,2.32,10.07,4.73,14.2,4.73,4.74,0,7.14-1.62,7.14-4.81,0-1.79-3.09-4.76-11.76-7.75-10.06-3.62-33.48-12.05-33.48-39.82,0-12.02,4.57-22.86,12.88-30.54,8.18-7.56,19.68-11.72,32.38-11.72,18.32,0,34.74,8.53,35.43,8.89l2.67,1.41v36.13h-5c-5.64,0-11.44-2.64-17.05-5.2-4.98-2.27-10.12-4.61-14.22-4.61-.86,0-5.15.16-5.15,3.32,0,2.52,6.52,4.91,12.28,7.02,1.14.42,2.3.84,3.46,1.28,19.75,7.2,29.7,20.32,29.51,38.99,0,17.87-12.67,44.54-47.58,44.54Z" style="fill:#1a1a1a; stroke-width:0px;"/><polygon points="895.04 256.08 895.04 167.09 872.42 167.09 872.42 129.81 958.94 129.81 958.94 167.09 936.15 167.09 936.15 256.08 895.04 256.08" style="fill:#1a1a1a; stroke-width:0px;"/><path d="M1027.46,259.24c-31.01,0-48.08-16.84-48.08-47.42v-82.01h40.44v82.01c0,5.18,1.24,7.64,8.31,7.64h.83c7.16,0,8.47-2.57,8.47-7.64v-82.01h40.61v82.01c0,21.63-8.43,47.42-48.58,47.42h-2Z" style="fill:#1a1a1a; stroke-width:0px;"/><path d="M1105.79,256.08v-126.27h36.27c21.96,0,38.98,5.28,50.56,15.69,11.82,10.62,17.81,26.33,17.81,46.7s-6.03,36.63-17.92,47.64c-11.64,10.78-28.39,16.24-49.78,16.24h-36.94ZM1147.56,218.59c15.24-1.39,22.1-9.59,22.1-26.06s-6.87-23.88-22.1-25.23v51.29Z" style="fill:#1a1a1a; stroke-width:0px;"/><rect x="1234.69" y="129.81" width="41.1" height="126.27" style="fill:#1a1a1a; stroke-width:0px;"/><path d="M1365.77,259.57c-43.27,0-65.9-34-65.9-67.59,0-17.32,5.8-33.44,16.33-45.4,11.96-13.58,29.05-20.76,49.41-20.76s37.52,7.21,49.52,20.84c10.56,12,16.38,28.16,16.38,45.52,0,33.49-22.58,67.4-65.74,67.4ZM1365.77,167.76c-18.05,0-26.1,7.59-26.1,24.61s7.71,25.27,25.77,25.27h.67c17.82,0,25.77-7.79,25.77-25.27s-7.81-24.61-26.1-24.61Z" style="fill:#1a1a1a; stroke-width:0px;"/><path d="M575.18,255.08l-4.99-13.89c-1.01-2.58-1.86-4.33-3.2-5.56-2.93-2.71-7.41-4.17-13.31-4.33h-1.2c-6.07.17-10.63,1.48-13.55,3.9-1.29,1.22-2.26,2.84-3.31,5.55l-5.35,14.33h-42.72l46.06-126.27h39.29l45.16,126.27h-42.88ZM556.37,200l-3.33-10.37-3.38,10.37h6.71Z" style="fill:#1a1a1a; stroke-width:0px;"/><rect x="636.4" y="128.81" width="41.1" height="126.27" style="fill:#1a1a1a; stroke-width:0px;"/><path d="M805.9,258.41c-17.9,0-34.84-9.39-35.55-9.79l-2.55-1.43v-36.04h5c5.86,0,11.73,2.76,17.41,5.42,4.95,2.32,10.07,4.73,14.2,4.73,4.74,0,7.14-1.62,7.14-4.81,0-1.79-3.09-4.76-11.76-7.75-10.06-3.62-33.48-12.05-33.48-39.82,0-12.02,4.57-22.86,12.88-30.54,8.18-7.56,19.68-11.72,32.38-11.72,18.32,0,34.74,8.53,35.43,8.89l2.67,1.41v36.13h-5c-5.64,0-11.44-2.64-17.05-5.2-4.98-2.27-10.12-4.61-14.22-4.61-.86,0-5.15.16-5.15,3.32,0,2.52,6.52,4.91,12.28,7.02,1.14.42,2.3.84,3.46,1.28,19.75,7.2,29.7,20.32,29.51,38.99,0,17.87-12.67,44.54-47.58,44.54Z" style="fill:#1a1a1a; stroke-width:0px;"/><polygon points="894.04 255.08 894.04 166.09 871.42 166.09 871.42 128.81 957.94 128.81 957.94 166.09 935.15 166.09 935.15 255.08 894.04 255.08" style="fill:#1a1a1a; stroke-width:0px;"/><path d="M1026.46,258.24c-31.01,0-48.08-16.84-48.08-47.42v-82.01h40.44v82.01c0,5.18,1.24,7.64,8.31,7.64h.83c7.16,0,8.47-2.57,8.47-7.64v-82.01h40.61v82.01c0,21.63-8.43,47.42-48.58,47.42h-2Z" style="fill:#1a1a1a; stroke-width:0px;"/><path d="M1104.79,255.08v-126.27h36.27c21.96,0,38.98,5.28,50.56,15.69,11.82,10.62,17.81,26.33,17.81,46.7s-6.03,36.63-17.92,47.64c-11.64,10.78-28.39,16.24-49.78,16.24h-36.94ZM1146.56,217.59c15.24-1.39,22.1-9.59,22.1-26.06s-6.87-23.88-22.1-25.23v51.29Z" style="fill:#1a1a1a; stroke-width:0px;"/><rect x="1233.69" y="128.81" width="41.1" height="126.27" style="fill:#1a1a1a; stroke-width:0px;"/><path d="M1364.77,258.57c-43.27,0-65.9-34-65.9-67.59,0-17.32,5.8-33.44,16.33-45.4,11.96-13.58,29.05-20.76,49.41-20.76s37.52,7.21,49.52,20.84c10.56,12,16.38,28.16,16.38,45.52,0,33.49-22.58,67.4-65.74,67.4ZM1364.77,166.76c-18.05,0-26.1,7.59-26.1,24.61s7.71,25.27,25.77,25.27h.67c17.82,0,25.77-7.79,25.77-25.27s-7.81-24.61-26.1-24.61Z" style="fill:#1a1a1a; stroke-width:0px;"/><path d="M574.18,254.08l-4.99-13.89c-1.01-2.58-1.86-4.33-3.2-5.56-2.93-2.71-7.41-4.17-13.31-4.33h-1.2c-6.07.17-10.63,1.48-13.55,3.9-1.29,1.22-2.26,2.84-3.31,5.55l-5.35,14.33h-42.72l46.06-126.27h39.29l45.16,126.27h-42.88ZM555.37,199l-3.33-10.37-3.38,10.37h6.71Z" style="fill:#1a1a1a; stroke-width:0px;"/><rect x="635.4" y="127.81" width="41.1" height="126.27" style="fill:#1a1a1a; stroke-width:0px;"/><path d="M804.9,257.41c-17.9,0-34.84-9.39-35.55-9.79l-2.55-1.43v-36.04h5c5.86,0,11.73,2.76,17.41,5.42,4.95,2.32,10.07,4.73,14.2,4.73,4.74,0,7.14-1.62,7.14-4.81,0-1.79-3.09-4.76-11.76-7.75-10.06-3.62-33.48-12.05-33.48-39.82,0-12.02,4.57-22.86,12.88-30.54,8.18-7.56,19.68-11.72,32.38-11.72,18.32,0,34.74,8.53,35.43,8.89l2.67,1.41v36.13h-5c-5.64,0-11.44-2.64-17.05-5.2-4.98-2.27-10.12-4.61-14.22-4.61-.86,0-5.15.16-5.15,3.32,0,2.52,6.52,4.91,12.28,7.02,1.14.42,2.3.84,3.46,1.28,19.75,7.2,29.7,20.32,29.51,38.99,0,17.87-12.67,44.54-47.58,44.54Z" style="fill:#1a1a1a; stroke-width:0px;"/><polygon points="893.04 254.08 893.04 165.09 870.42 165.09 870.42 127.81 956.94 127.81 956.94 165.09 934.15 165.09 934.15 254.08 893.04 254.08" style="fill:#1a1a1a; stroke-width:0px;"/><path d="M1025.46,257.24c-31.01,0-48.08-16.84-48.08-47.42v-82.01h40.44v82.01c0,5.18,1.24,7.64,8.31,7.64h.83c7.16,0,8.47-2.57,8.47-7.64v-82.01h40.61v82.01c0,21.63-8.43,47.42-48.58,47.42h-2Z" style="fill:#1a1a1a; stroke-width:0px;"/><path d="M1103.79,254.08v-126.27h36.27c21.96,0,38.98,5.28,50.56,15.69,11.82,10.62,17.81,26.33,17.81,46.7s-6.03,36.63-17.92,47.64c-11.64,10.78-28.39,16.24-49.78,16.24h-36.94ZM1145.56,216.59c15.24-1.39,22.1-9.59,22.1-26.06s-6.87-23.88-22.1-25.23v51.29Z" style="fill:#1a1a1a; stroke-width:0px;"/><rect x="1232.69" y="127.81" width="41.1" height="126.27" style="fill:#1a1a1a; stroke-width:0px;"/><path d="M1363.77,257.57c-43.27,0-65.9-34-65.9-67.59,0-17.32,5.8-33.44,16.33-45.4,11.96-13.58,29.05-20.76,49.41-20.76s37.52,7.21,49.52,20.84c10.56,12,16.38,28.16,16.38,45.52,0,33.49-22.58,67.4-65.74,67.4ZM1363.77,165.76c-18.05,0-26.1,7.59-26.1,24.61s7.71,25.27,25.77,25.27h.67c17.82,0,25.77-7.79,25.77-25.27s-7.81-24.61-26.1-24.61Z" style="fill:#1a1a1a; stroke-width:0px;"/><path d="M573.18,253.08l-4.99-13.89c-1.01-2.58-1.86-4.33-3.2-5.56-2.93-2.71-7.41-4.17-13.31-4.33h-1.2c-6.07.17-10.63,1.48-13.55,3.9-1.29,1.22-2.26,2.84-3.31,5.55l-5.35,14.33h-42.72l46.06-126.27h39.29l45.16,126.27h-42.88ZM554.37,198l-3.33-10.37-3.38,10.37h6.71Z" style="fill:#1a1a1a; stroke-width:0px;"/><rect x="634.4" y="126.81" width="41.1" height="126.27" style="fill:#1a1a1a; stroke-width:0px;"/><path d="M803.9,256.41c-17.9,0-34.84-9.39-35.55-9.79l-2.55-1.43v-36.04h5c5.86,0,11.73,2.76,17.41,5.42,4.95,2.32,10.07,4.73,14.2,4.73,4.74,0,7.14-1.62,7.14-4.81,0-1.79-3.09-4.76-11.76-7.75-10.06-3.62-33.48-12.05-33.48-39.82,0-12.02,4.57-22.86,12.88-30.54,8.18-7.56,19.68-11.72,32.38-11.72,18.32,0,34.74,8.53,35.43,8.89l2.67,1.41v36.13h-5c-5.64,0-11.44-2.64-17.05-5.2-4.98-2.27-10.12-4.61-14.22-4.61-.86,0-5.15.16-5.15,3.32,0,2.52,6.52,4.91,12.28,7.02,1.14.42,2.3.84,3.46,1.28,19.75,7.2,29.7,20.32,29.51,38.99,0,17.87-12.67,44.54-47.58,44.54Z" style="fill:#1a1a1a; stroke-width:0px;"/><polygon points="892.04 253.08 892.04 164.09 869.42 164.09 869.42 126.81 955.94 126.81 955.94 164.09 933.15 164.09 933.15 253.08 892.04 253.08" style="fill:#1a1a1a; stroke-width:0px;"/><path d="M1024.46,256.24c-31.01,0-48.08-16.84-48.08-47.42v-82.01h40.44v82.01c0,5.18,1.24,7.64,8.31,7.64h.83c7.16,0,8.47-2.57,8.47-7.64v-82.01h40.61v82.01c0,21.63-8.43,47.42-48.58,47.42h-2Z" style="fill:#1a1a1a; stroke-width:0px;"/><path d="M1102.79,253.08v-126.27h36.27c21.96,0,38.98,5.28,50.56,15.69,11.82,10.62,17.81,26.33,17.81,46.7s-6.03,36.63-17.92,47.64c-11.64,10.78-28.39,16.24-49.78,16.24h-36.94ZM1144.56,215.59c15.24-1.39,22.1-9.59,22.1-26.06s-6.87-23.88-22.1-25.23v51.29Z" style="fill:#1a1a1a; stroke-width:0px;"/><rect x="1231.69" y="126.81" width="41.1" height="126.27" style="fill:#1a1a1a; stroke-width:0px;"/><path d="M1362.77,256.57c-43.27,0-65.9-34-65.9-67.59,0-17.32,5.8-33.44,16.33-45.4,11.96-13.58,29.05-20.76,49.41-20.76s37.52,7.21,49.52,20.84c10.56,12,16.38,28.16,16.38,45.52,0,33.49-22.58,67.4-65.74,67.4ZM1362.77,164.76c-18.05,0-26.1,7.59-26.1,24.61s7.71,25.27,25.77,25.27h.67c17.82,0,25.77-7.79,25.77-25.27s-7.81-24.61-26.1-24.61Z" style="fill:#1a1a1a; stroke-width:0px;"/><path d="M535.11,131.81h32.27l41.58,116.27h-32.27l-3.83-10.65c-1.16-2.99-2.33-5.49-4.49-7.49-4.32-3.99-10.31-5.49-16.63-5.66h-1.33c-6.32.17-12.48,1.5-16.8,5.16-2.16,2-3.49,4.49-4.66,7.49l-4.16,11.14h-32.1l42.42-116.27ZM561.22,203l-10.15-31.6-10.31,31.6h20.46Z" style="fill:#ccc; stroke-width:0px;"/><path d="M639.4,131.81h31.1v116.27h-31.1v-116.27Z" style="fill:#ccc; stroke-width:0px;"/><path d="M770.8,242.26v-28.11c9.65,0,21.29,10.15,31.6,10.15,7.49,0,12.14-3.66,12.14-9.81,0-4.82-4.99-8.98-15.14-12.48-12.48-4.49-30.11-12.31-30.11-35.1s16.63-37.26,40.25-37.26c17.3,0,33.1,8.32,33.1,8.32v28.11c-9.31,0-21.12-9.81-31.27-9.81-5.99,0-10.15,3.33-10.15,8.32,0,6.82,9.31,9.31,18.96,12.97,17.8,6.49,26.45,17.8,26.28,34.26,0,14.64-9.81,39.59-42.58,39.59-16.8,0-33.1-9.15-33.1-9.15Z" style="fill:#ccc; stroke-width:0px;"/><path d="M897.04,159.09h-22.62v-27.28h76.51v27.28h-22.79v88.99h-31.1v-88.99Z" style="fill:#ccc; stroke-width:0px;"/><path d="M981.37,208.83v-77.01h30.44v77.01c0,8.82,4.32,12.64,13.31,12.64h.83c9.15,0,13.47-3.99,13.47-12.64v-77.01h30.61v77.01c0,13.97-2.99,42.42-43.58,42.42h-2c-39.59,0-43.08-28.44-43.08-42.42Z" style="fill:#ccc; stroke-width:0px;"/><path d="M1107.79,248.08v-116.27h31.27c41.42,0,63.37,19.29,63.37,57.39s-22.62,58.88-62.71,58.88h-31.94ZM1171.66,189.53c0-20.13-10.48-30.44-32.1-30.44v61.71c21.62,0,32.1-10.65,32.1-31.27Z" style="fill:#ccc; stroke-width:0px;"/><path d="M1236.69,131.81h31.1v116.27h-31.1v-116.27Z" style="fill:#ccc; stroke-width:0px;"/><path d="M1362.61,127.82c82.17,0,80.17,123.75.17,123.75s-82.34-123.75-.17-123.75ZM1362.44,219.64h.67c20.79,0,30.77-10.31,30.77-30.27s-9.81-29.61-31.1-29.61-31.1,9.98-31.1,29.61,9.48,30.27,30.77,30.27Z" style="fill:#ccc; stroke-width:0px;"/><g id="Words"><path d="M872.74,76.42h7.48v27.96h-7.48v-27.96Z" style="fill:#f2f2f2; stroke-width:0px;"/><path d="M894.49,90.42v13.96h-7.48v-27.96l8.76-.04c2.4,8.24,7.88,16.92,7.88,16.92v-16.88h7.48v27.96h-7.8s-5.56-7.28-8.84-13.96Z" style="fill:#f2f2f2; stroke-width:0px;"/><path d="M925.41,90.42v13.96h-7.48v-27.96l8.76-.04c2.4,8.24,7.88,16.92,7.88,16.92v-16.88h7.48v27.96h-7.8s-5.56-7.28-8.84-13.96Z" style="fill:#f2f2f2; stroke-width:0px;"/><path d="M962.37,75.46c19.76,0,19.28,29.75.04,29.75s-19.8-29.75-.04-29.75ZM962.33,97.54h.16c5,0,7.4-2.48,7.4-7.28s-2.36-7.12-7.48-7.12-7.48,2.4-7.48,7.12,2.28,7.28,7.4,7.28Z" style="fill:#f2f2f2; stroke-width:0px;"/><path d="M979.73,76.42h7.08c1.72,6.48,4.2,12.32,6.68,16.68,2.52-4.36,5-10.2,6.72-16.68h7.08c-4.08,16.52-13.8,28.71-13.8,28.71,0,0-9.72-12.2-13.76-28.71Z" style="fill:#f2f2f2; stroke-width:0px;"/><path d="M1016.09,76.42h7.76l10,27.96h-7.76l-.92-2.56c-.28-.72-.56-1.32-1.08-1.8-1.04-.96-2.48-1.32-4-1.36h-.32c-1.52.04-3,.36-4.04,1.24-.52.48-.84,1.08-1.12,1.8l-1,2.68h-7.72l10.2-27.96ZM1022.37,93.54l-2.44-7.6-2.48,7.6h4.92Z" style="fill:#f2f2f2; stroke-width:0px;"/><path d="M1039.65,82.98h-5.44v-6.56h18.4v6.56h-5.48v21.4h-7.48v-21.4Z" style="fill:#f2f2f2; stroke-width:0px;"/><path d="M1057.69,76.42h15.32v6.56h-6.52c-1.2,0-1.76.68-1.76,2s.6,2.04,1.72,2.04h6.16v6.56h-6.12c-1.24,0-1.84.72-1.84,2.08,0,1.44.6,2.16,1.8,2.16h6.56v6.56h-15.32v-27.96Z" style="fill:#f2f2f2; stroke-width:0px;"/><path d="M490.33,288.13h7.36v21.36h7.96v6.6h-15.32v-27.96Z" style="fill:#f2f2f2; stroke-width:0px;"/><path d="M511.85,288.13h15.32v6.56h-6.52c-1.2,0-1.76.68-1.76,2s.6,2.04,1.72,2.04h6.16v6.56h-6.12c-1.24,0-1.84.72-1.84,2.08,0,1.44.6,2.16,1.8,2.16h6.56v6.56h-15.32v-27.96Z" style="fill:#f2f2f2; stroke-width:0px;"/><path d="M543.09,288.13h7.76l10,27.96h-7.76l-.92-2.56c-.28-.72-.56-1.32-1.08-1.8-1.04-.96-2.48-1.32-4-1.36h-.32c-1.52.04-3,.36-4.04,1.24-.52.48-.84,1.08-1.12,1.8l-1,2.68h-7.72l10.2-27.96ZM549.37,305.24l-2.44-7.6-2.48,7.6h4.92Z" style="fill:#f2f2f2; stroke-width:0px;"/><path d="M574.13,310.64v5.44h-7.28v-27.96h9.2c4.16,0,11.16.72,11.16,9.2s-6.08,9.32-8.32,9.56c2.16,4.64,5.44,4.68,5.68.32h6c0,1.48-.32,2.92-.88,4.28-1.32,3.16-4,4.96-7.32,4.96-3,0-5.76-1.96-8.24-5.8ZM576.53,300.96h.24c2.44,0,3.56-1.12,3.56-3.36s-1.16-3.44-3.52-3.44h-.24c-2.44,0-3.56,1.12-3.56,3.36s1.16,3.44,3.52,3.44Z" style="fill:#f2f2f2; stroke-width:0px;"/><path d="M604.05,302.12v13.96h-7.48v-27.96l8.76-.04c2.4,8.24,7.88,16.92,7.88,16.92v-16.88h7.48v27.96h-7.8s-5.56-7.28-8.84-13.96Z" style="fill:#f2f2f2; stroke-width:0px;"/><path d="M1107.41,316.52v-27.96h7.52c9.96,0,15.24,4.64,15.24,13.8s-5.44,14.16-15.08,14.16h-7.68ZM1122.77,302.44c0-4.84-2.52-7.32-7.72-7.32v14.84c5.2,0,7.72-2.56,7.72-7.52Z" style="fill:#f2f2f2; stroke-width:0px;"/><path d="M1135.33,288.57h15.32v6.56h-6.52c-1.2,0-1.76.68-1.76,2s.6,2.04,1.72,2.04h6.16v6.56h-6.12c-1.24,0-1.84.72-1.84,2.08,0,1.44.6,2.16,1.8,2.16h6.56v6.56h-15.32v-27.96Z" style="fill:#f2f2f2; stroke-width:0px;"/><path d="M1154.65,288.57h7.08c1.72,6.48,4.2,12.32,6.68,16.68,2.52-4.36,5-10.2,6.72-16.68h7.08c-4.08,16.52-13.8,28.71-13.8,28.71,0,0-9.72-12.2-13.76-28.71Z" style="fill:#f2f2f2; stroke-width:0px;"/><path d="M1186.49,288.57h15.32v6.56h-6.52c-1.2,0-1.76.68-1.76,2s.6,2.04,1.72,2.04h6.16v6.56h-6.12c-1.24,0-1.84.72-1.84,2.08,0,1.44.6,2.16,1.8,2.16h6.56v6.56h-15.32v-27.96Z" style="fill:#f2f2f2; stroke-width:0px;"/><path d="M1207.73,288.57h7.36v21.36h7.96v6.6h-15.32v-27.96Z" style="fill:#f2f2f2; stroke-width:0px;"/><path d="M1241.01,287.61c19.76,0,19.28,29.75.04,29.75s-19.8-29.75-.04-29.75ZM1240.97,309.68h.16c5,0,7.4-2.48,7.4-7.28s-2.36-7.12-7.48-7.12-7.48,2.4-7.48,7.12,2.28,7.28,7.4,7.28Z" style="fill:#f2f2f2; stroke-width:0px;"/><path d="M1260.81,288.57h8.64c4.76,0,11.72.72,11.72,9.2s-7,9.68-9.92,9.68h-3.16v9.08h-7.28v-27.96ZM1270.49,301.4h.24c2.44,0,3.56-1.12,3.56-3.36s-1.24-3.44-3.52-3.44h-.24c-2.44,0-3.56,1.12-3.56,3.36s1.16,3.44,3.52,3.44Z" style="fill:#f2f2f2; stroke-width:0px;"/><path d="M709.23,255.73v5.44h-6.56v-18.4h6.56v5.48h21.4v7.48h-21.4Z" style="fill:#f2f2f2; stroke-width:0px;"/><path d="M702.67,238.29v-7.48h10.6v-7.72h-10.6v-7.52h27.96v7.52h-11.28v7.72h11.28v7.48h-27.96Z" style="fill:#f2f2f2; stroke-width:0px;"/><path d="M702.67,209.37v-7.48h27.96v7.48h-27.96Z" style="fill:#f2f2f2; stroke-width:0px;"/><path d="M716.67,188.21h13.96v7.48h-27.96l-.04-8.76c8.24-2.4,16.92-7.88,16.92-7.88h-16.88v-7.48h27.96v7.8s-7.28,5.56-13.96,8.84Z" style="fill:#f2f2f2; stroke-width:0px;"/><path d="M722.23,157.89h8.36v7.48h-27.96v-7.48h10.08l-10.08-7.88v-8l13.52,10.36c-.24-5.64-2.72-10.28-2.72-10.28h17.2v6.52h-8.4c.4,2.44.72,5.72,0,9.28Z" style="fill:#f2f2f2; stroke-width:0px;"/></g><g id="Cluster_Groups"><g id="Chat"><path id="Chat_Bubble" d="M1782.54,166.04c-3,0-5.45,2.45-5.45,5.45v65.38c0,3,2.45,5.45,5.45,5.45h55.11c1.73,3.7,8.07,14.89,22.59,18.12.13.03.27.04.4.04.57,0,1.13-.28,1.48-.76.43-.58.45-1.37.09-1.99-3.71-6.17-4.77-12.41-5.07-15.41h16.22c3,0,5.45-2.45,5.45-5.45v-65.38c0-3-2.45-5.45-5.45-5.45h-90.8ZM1782.54,169.67h90.8c1,0,1.82.82,1.82,1.82v65.38c0,1-.82,1.82-1.82,1.82h-18.16c-1.01,0-1.82.82-1.82,1.82,0,.34.05,7.27,3.66,15.19-12.09-4.58-16.44-15.71-16.49-15.83-.27-.71-.94-1.18-1.7-1.18h-56.3c-1,0-1.82-.82-1.82-1.82v-65.38c0-1,.82-1.82,1.82-1.82ZM1800.7,195.1c-1.01,0-1.82.82-1.82,1.82s.81,1.82,1.82,1.82h39.95c1.01,0,1.82-.82,1.82-1.82s-.81-1.82-1.82-1.82h-39.95ZM1847.92,195.1c-1.01,0-1.82.82-1.82,1.82s.81,1.82,1.82,1.82h7.26c1.01,0,1.82-.82,1.82-1.82s-.81-1.82-1.82-1.82h-7.26ZM1800.7,206c-1.01,0-1.82.82-1.82,1.82s.81,1.82,1.82,1.82h47.22c1.01,0,1.82-.82,1.82-1.82s-.81-1.82-1.82-1.82h-47.22ZM1786.17,227.79c-1.01,0-1.82.82-1.82,1.82v3.63c0,1,.81,1.82,1.82,1.82s1.82-.82,1.82-1.82v-3.63c0-1-.81-1.82-1.82-1.82ZM1795.25,227.79c-1.01,0-1.82.82-1.82,1.82v3.63c0,1,.81,1.82,1.82,1.82s1.82-.82,1.82-1.82v-3.63c0-1-.81-1.82-1.82-1.82ZM1804.33,227.79c-1.01,0-1.82.82-1.82,1.82v3.63c0,1,.81,1.82,1.82,1.82s1.82-.82,1.82-1.82v-3.63c0-1-.81-1.82-1.82-1.82ZM1813.41,227.79c-1.01,0-1.82.82-1.82,1.82v3.63c0,1,.81,1.82,1.82,1.82s1.82-.82,1.82-1.82v-3.63c0-1-.81-1.82-1.82-1.82ZM1822.49,227.79c-1.01,0-1.82.82-1.82,1.82v3.63c0,1,.81,1.82,1.82,1.82s1.82-.82,1.82-1.82v-3.63c0-1-.81-1.82-1.82-1.82ZM1831.57,227.79c-1.01,0-1.82.82-1.82,1.82v3.63c0,1,.81,1.82,1.82,1.82s1.82-.82,1.82-1.82v-3.63c0-1-.81-1.82-1.82-1.82ZM1840.65,227.79c-1.01,0-1.82.82-1.82,1.82v3.63c0,1,.81,1.82,1.82,1.82s1.82-.82,1.82-1.82v-3.63c0-1-.81-1.82-1.82-1.82ZM1849.74,227.79c-1.01,0-1.82.82-1.82,1.82v3.63c0,1,.81,1.82,1.82,1.82s1.82-.82,1.82-1.82v-3.63c0-1-.81-1.82-1.82-1.82ZM1858.82,227.79c-1.01,0-1.82.82-1.82,1.82v3.63c0,1,.81,1.82,1.82,1.82s1.82-.82,1.82-1.82v-3.63c0-1-.81-1.82-1.82-1.82ZM1867.9,227.79c-1.01,0-1.82.82-1.82,1.82v3.63c0,1,.81,1.82,1.82,1.82s1.82-.82,1.82-1.82v-3.63c0-1-.81-1.82-1.82-1.82Z" style="fill:#f2f2f2; stroke-width:0px;"/><path d="M1778.58,141.44c0-9.92,9.56-18,20.56-13.16v8.08c-5.48-4.28-13-1.88-13,5.08s7.52,9.28,13,5.32v7.88c-11,5.04-20.56-3.68-20.56-13.2Z" style="fill:#f2f2f2; stroke-width:0px;"/><path d="M1804.82,127.52h7.48v10.6h7.72v-10.6h7.52v27.96h-7.52v-11.28h-7.72v11.28h-7.48v-27.96Z" style="fill:#f2f2f2; stroke-width:0px;"/><path d="M1841.98,127.52h7.76l10,27.96h-7.76l-.92-2.56c-.28-.72-.56-1.32-1.08-1.8-1.04-.96-2.48-1.32-4-1.36h-.32c-1.52.04-3,.36-4.04,1.24-.52.48-.84,1.08-1.12,1.8l-1,2.68h-7.72l10.2-27.96ZM1848.26,144.64l-2.44-7.6-2.48,7.6h4.92Z" style="fill:#f2f2f2; stroke-width:0px;"/><path d="M1864.94,134.08h-5.44v-6.56h18.4v6.56h-5.48v21.4h-7.48v-21.4Z" style="fill:#f2f2f2; stroke-width:0px;"/></g><g id="Write"><path id="Storytelling" d="M1677.63,92.8c-1.31.17-2.23,1.38-2.06,2.69l.64,4.79c.16,1.2,1.19,2.08,2.37,2.08.11,0,.21,0,.32-.02,1.31-.17,2.23-1.38,2.06-2.69l-.64-4.79c-.17-1.31-1.39-2.22-2.69-2.06ZM1699.81,92.8c-1.3-.17-2.52.75-2.69,2.06l-4.79,35.92c-.17,1.31.75,2.51,2.06,2.69.11.01.22.02.32.02,1.18,0,2.21-.87,2.37-2.08l4.79-35.92c.17-1.31-.74-2.52-2.05-2.69ZM1637.94,97.8l-2.97,5.41-5.41,2.97,5.41,2.97,2.97,5.41,2.97-5.41,5.41-2.97-5.41-2.97-2.97-5.41ZM1658.81,99.96c-.31,0-.63.06-.94.19-1.22.51-1.8,1.91-1.29,3.13l11.97,28.73c.38.92,1.27,1.47,2.21,1.47.31,0,.62-.06.92-.19,1.22-.51,1.8-1.91,1.29-3.13l-11.97-28.73c-.38-.91-1.26-1.47-2.2-1.47ZM1718.33,101.99l-1.41,2.54-2.54,1.41,2.54,1.39,1.41,2.56,1.39-2.56,2.56-1.39-2.56-1.41-1.39-2.54ZM1735.51,103.57l-2.06,3.74-3.74,2.06,3.74,2.03,2.06,3.76,2.04-3.76,3.76-2.03-3.76-2.06-2.04-3.74ZM1679.41,107.08l-2.06,3.73-3.74,2.06,3.74,2.03,2.06,3.76,2.03-3.76,3.76-2.03-3.76-2.06-2.03-3.73ZM1713.65,111.93c-.93,0-1.82.56-2.2,1.47l-6.98,16.76c-.51,1.22.06,2.63,1.29,3.13.3.13.61.19.92.19.94,0,1.83-.55,2.21-1.47l6.99-16.76c.51-1.22-.07-2.63-1.29-3.13-.31-.13-.62-.19-.94-.19ZM1646.82,114.33c-.61,0-1.22.23-1.69.7-.94.94-.94,2.45,0,3.39l11.97,11.97c.47.47,1.08.7,1.69.7s1.23-.23,1.69-.7c.94-.94.94-2.45,0-3.39l-11.97-11.97c-.47-.47-1.08-.7-1.69-.7ZM1728.23,116.72c-.61,0-1.22.23-1.69.7l-9.58,9.58c-.94.94-.94,2.45,0,3.39.47.47,1.08.7,1.69.7s1.23-.23,1.69-.7l9.58-9.58c.94-.94.94-2.45,0-3.39-.47-.47-1.08-.7-1.69-.7ZM1681.78,123.92c-1.31.17-2.23,1.38-2.06,2.69l.64,4.79c.16,1.2,1.19,2.08,2.37,2.08.11,0,.21,0,.32-.02,1.31-.17,2.23-1.38,2.06-2.69l-.64-4.79c-.17-1.31-1.38-2.23-2.69-2.06ZM1642.03,138.27c-3.12,0-5.75,2.01-6.74,4.79h-2.83c-3.96,0-7.18,3.22-7.18,7.18v71.83c0,3.96,3.22,7.18,7.18,7.18h38.84c1.41,0,2.63.95,2.97,2.32,1.07,4.27,4.88,7.25,9.29,7.25h7.94c4.4,0,8.22-2.98,9.29-7.26.34-1.37,1.56-2.32,2.97-2.32h38.84c3.96,0,7.18-3.22,7.18-7.18v-71.83c0-3.96-3.22-7.18-7.18-7.18h-2.83c-.99-2.78-3.63-4.79-6.74-4.79h-35.92c-3.93,0-7.39,1.93-9.58,4.86-2.18-2.93-5.65-4.86-9.58-4.86h-35.92ZM1642.03,143.06h35.92c3.96,0,7.18,3.22,7.18,7.18v38.31c0,1.32,1.07,2.39,2.39,2.39s2.39-1.07,2.39-2.39v-38.31c0-3.96,3.22-7.18,7.18-7.18h35.92c1.32,0,2.39,1.07,2.39,2.39v67.04c0,1.32-1.08,2.39-2.39,2.39h-35.92c-3.93,0-7.39,1.93-9.58,4.86-2.18-2.93-5.65-4.86-9.58-4.86h-35.92c-1.32,0-2.39-1.07-2.39-2.39v-67.04c0-1.32,1.08-2.39,2.39-2.39ZM1632.45,147.85h2.39v64.65c0,3.96,3.22,7.18,7.18,7.18h35.92c3.96,0,7.18,3.22,7.18,7.18,0,1.32,1.07,2.39,2.39,2.39s2.39-1.07,2.39-2.39c0-3.96,3.22-7.18,7.18-7.18h35.92c3.96,0,7.18-3.22,7.18-7.18v-64.65h2.39c1.32,0,2.39,1.07,2.39,2.39v71.83c0,1.32-1.08,2.39-2.39,2.39h-38.84c-3.61,0-6.74,2.44-7.62,5.95-.53,2.14-2.44,3.63-4.64,3.63h-7.94c-2.2,0-4.11-1.49-4.65-3.63-.88-3.5-4.01-5.95-7.62-5.95h-38.84c-1.32,0-2.39-1.07-2.39-2.39v-71.83c0-1.32,1.08-2.39,2.39-2.39ZM1649.21,152.64c-1.32,0-2.39,1.07-2.39,2.39v4.79c0,1.32,1.07,2.39,2.39,2.39s2.39-1.07,2.39-2.39v-4.79c0-1.32-1.07-2.39-2.39-2.39ZM1661.19,152.64c-1.32,0-2.39,1.07-2.39,2.39v4.79c0,1.32,1.07,2.39,2.39,2.39s2.39-1.07,2.39-2.39v-4.79c0-1.32-1.07-2.39-2.39-2.39ZM1673.16,152.64c-1.32,0-2.39,1.07-2.39,2.39v4.79c0,1.32,1.07,2.39,2.39,2.39s2.39-1.07,2.39-2.39v-4.79c0-1.32-1.07-2.39-2.39-2.39ZM1701.89,152.64c-1.32,0-2.39,1.07-2.39,2.39v4.79c0,1.32,1.07,2.39,2.39,2.39s2.39-1.07,2.39-2.39v-4.79c0-1.32-1.07-2.39-2.39-2.39ZM1713.86,152.64c-1.32,0-2.39,1.07-2.39,2.39v4.79c0,1.32,1.07,2.39,2.39,2.39s2.39-1.07,2.39-2.39v-4.79c0-1.32-1.07-2.39-2.39-2.39ZM1725.83,152.64c-1.32,0-2.39,1.07-2.39,2.39v4.79c0,1.32,1.07,2.39,2.39,2.39s2.39-1.07,2.39-2.39v-4.79c0-1.32-1.07-2.39-2.39-2.39ZM1687.52,195.74c-1.32,0-2.39,1.07-2.39,2.39v9.58c0,1.32,1.07,2.39,2.39,2.39s2.39-1.07,2.39-2.39v-9.58c0-1.32-1.07-2.39-2.39-2.39Z" style="fill:#f2f2f2; stroke-width:0px;"/><path d="M1628.24,249.96h7.12c1.72,6.48,4.52,12.28,6.8,16.28.52-.96,1.24-2.08,1.84-3.2-1.96-4.24-3.52-8.56-4.6-13.08h6.64c.36,1.4,1.2,4.76,1.72,6.08.56-1.32,1.36-4.68,1.76-6.08h6.6c-1.08,4.52-2.6,8.84-4.56,13.08.56,1.12,1.32,2.24,1.84,3.2,2.28-4,5.08-9.8,6.8-16.28h7.12c-4.08,16.52-13.8,28.71-13.8,28.71-2.08-2.6-4-5.28-5.76-8.12-1.76,2.84-3.68,5.52-5.76,8.12,0,0-9.72-12.2-13.76-28.71Z" style="fill:#f2f2f2; stroke-width:0px;"/><path d="M1678.88,272.48v5.44h-7.28v-27.96h9.2c4.16,0,11.16.72,11.16,9.2s-6.08,9.32-8.32,9.56c2.16,4.64,5.44,4.68,5.68.32h6c0,1.48-.32,2.92-.88,4.28-1.32,3.16-4,4.96-7.32,4.96-3,0-5.76-1.96-8.24-5.8ZM1681.28,262.8h.24c2.44,0,3.56-1.12,3.56-3.36s-1.16-3.44-3.52-3.44h-.24c-2.44,0-3.56,1.12-3.56,3.36s1.16,3.44,3.52,3.44Z" style="fill:#f2f2f2; stroke-width:0px;"/><path d="M1699.56,249.96h7.48v27.96h-7.48v-27.96Z" style="fill:#f2f2f2; stroke-width:0px;"/><path d="M1716.92,256.52h-5.44v-6.56h18.4v6.56h-5.48v21.4h-7.48v-21.4Z" style="fill:#f2f2f2; stroke-width:0px;"/><path d="M1734.36,249.96h15.32v6.56h-6.52c-1.2,0-1.76.68-1.76,2s.6,2.04,1.72,2.04h6.16v6.56h-6.12c-1.24,0-1.84.72-1.84,2.08,0,1.44.6,2.16,1.8,2.16h6.56v6.56h-15.32v-27.96Z" style="fill:#f2f2f2; stroke-width:0px;"/></g><g id="Plan"><path id="Plan-2" d="M1547.68,136.07c-3.55,0-7.11,1.11-10.15,3.32l-4.66,3.39h-24.9c-2.85,0-5.18,2.33-5.18,5.18v89.77c0,2.85,2.33,5.18,5.18,5.18h79.41c2.85,0,5.18-2.33,5.18-5.18v-89.77c0-2.85-2.33-5.18-5.18-5.18h-24.9l-4.66-3.39c-3.03-2.21-6.6-3.31-10.15-3.32ZM1547.68,139.54c2.85,0,5.7.88,8.13,2.65l.81.59,4.73,3.45,1.45,1.05c.84.61,1.46,1.45,1.81,2.4.22.57.32,1.17.32,1.79v3.39c0,.95-.78,1.73-1.73,1.73h-31.07c-.95,0-1.73-.78-1.73-1.73v-3.39c0-.62.1-1.23.32-1.79.35-.95.97-1.79,1.81-2.4l1.45-1.05,4.73-3.45.81-.59c2.43-1.77,5.29-2.65,8.13-2.65ZM1547.68,142.77c-1.91,0-3.45,1.54-3.45,3.45s1.54,3.45,3.45,3.45,3.45-1.54,3.45-3.45-1.54-3.45-3.45-3.45ZM1507.97,146.23h20.77c-.78,1.02-1.34,2.19-1.57,3.45h-15.75c-.95,0-1.73.78-1.73,1.73v82.86c0,.95.78,1.73,1.73,1.73h72.5c.95,0,1.73-.78,1.73-1.73v-82.86c0-.95-.78-1.73-1.73-1.73h-15.75c-.24-1.26-.79-2.43-1.57-3.45h20.77c.95,0,1.73.78,1.73,1.73v89.77c0,.95-.78,1.73-1.73,1.73h-79.41c-.95,0-1.73-.78-1.73-1.73v-89.77c0-.95.78-1.73,1.73-1.73ZM1513.15,153.13h13.81v1.73c0,2.85,2.33,5.18,5.18,5.18h31.07c2.85,0,5.18-2.33,5.18-5.18v-1.73h13.81v69.05c-.96,0-1.73.78-1.73,1.73v3.45c0,.95.77,1.73,1.73,1.73v3.45h-69.05v-3.45c.96,0,1.73-.78,1.73-1.73v-3.45c0-.95-.77-1.73-1.73-1.73v-69.05ZM1563.21,163.49c-.44,0-.88.17-1.22.51l-5.18,5.18c-.67.67-.67,1.77,0,2.44.67.67,1.77.67,2.44,0l3.96-3.96,3.96,3.96c.34.34.78.51,1.22.51s.88-.17,1.22-.51c.67-.67.67-1.77,0-2.44l-5.18-5.18c-.34-.34-.78-.51-1.22-.51ZM1526.96,173.85c-.44,0-.88.17-1.22.51-.67.67-.67,1.77,0,2.44l2.23,2.23-2.23,2.23c-.67.67-.67,1.77,0,2.44.34.34.78.51,1.22.51s.88-.17,1.22-.51l2.23-2.23,2.23,2.23c.34.34.78.51,1.22.51s.88-.17,1.22-.51c.67-.67.67-1.77,0-2.44l-2.23-2.23,2.23-2.23c.67-.67.67-1.77,0-2.44s-1.77-.67-2.44,0l-2.23,2.23-2.23-2.23c-.34-.34-.78-.51-1.22-.51ZM1563.21,173.85c-2.85,0-5.18,2.33-5.18,5.18,0,.33.03.64.09.95l-24.36,14.1c-.9-.78-2.08-1.24-3.34-1.24-2.85,0-5.18,2.33-5.18,5.18s2.33,5.18,5.18,5.18c1.24,0,2.4-.45,3.3-1.19l17.53,10.51c-.07.32-.11.69-.11,1.03,0,2.85,2.33,5.18,5.18,5.18s5.18-2.33,5.18-5.18-2.33-5.18-5.18-5.18c-1.24,0-2.4.45-3.3,1.19l-17.53-10.51c.07-.32.11-.69.11-1.03s-.03-.64-.09-.95l24.36-14.1c.9.78,2.08,1.24,3.34,1.24,2.85,0,5.18-2.33,5.18-5.18s-2.33-5.18-5.18-5.18ZM1563.21,177.3c.12,0,.24.01.34.03.19.03.36.11.52.21.12.07.24.16.34.26.09.07.16.18.22.26,0,.02.02.04.03.05.04.05.05.11.09.16.05.11.1.24.11.36.04.12.05.26.05.4,0,.12-.01.24-.03.34-.03.19-.11.36-.21.52-.07.12-.16.24-.26.34-.07.09-.18.16-.26.22-.02,0-.04.02-.05.03-.26.16-.59.26-.92.26-.95,0-1.73-.78-1.73-1.73,0-.59.31-1.12.76-1.43.07-.04.14-.09.22-.13.11-.05.24-.1.36-.11.12-.04.26-.05.4-.05ZM1559.76,191.11c-.44,0-.88.17-1.22.51-.67.67-.67,1.77,0,2.44l2.23,2.23-2.23,2.23c-.67.67-.67,1.77,0,2.44.34.34.78.51,1.22.51s.88-.17,1.22-.51l2.23-2.23,2.23,2.23c.34.34.78.51,1.22.51s.88-.17,1.22-.51c.67-.67.67-1.77,0-2.44l-2.23-2.23,2.23-2.23c.67-.67.67-1.77,0-2.44s-1.77-.67-2.44,0l-2.23,2.23-2.23-2.23c-.34-.34-.78-.51-1.22-.51ZM1530.41,196.29c.09,0,.18,0,.26.03.07,0,.13.01.19.03.13.03.26.09.38.16.05.02.09.03.14.07.45.31.76.84.76,1.43s-.31,1.12-.76,1.43c-.07.04-.14.09-.22.13-.22.1-.48.17-.76.17-.19,0-.36-.03-.54-.09-.1-.03-.17-.07-.26-.12-.02,0-.03,0-.05-.01-.02-.02-.03-.02-.05-.04-.03-.01-.07-.03-.1-.06-.07-.05-.14-.11-.21-.18l-.02-.02c-.09-.09-.17-.19-.24-.29-.04-.05-.05-.11-.09-.16-.05-.11-.1-.24-.11-.38-.04-.11-.05-.24-.05-.38s.01-.26.05-.38c0-.02,0-.05.01-.07,0-.07.02-.11.05-.17.02-.05.03-.09.07-.12-.02.02-.03.03-.05.07.02-.03.03-.09.07-.12,0-.02,0-.03.01-.05.02-.02.02-.03.04-.05.01-.03.03-.07.06-.1.05-.07.11-.14.18-.21l.02-.02c.09-.09.19-.17.29-.24.04-.02.09-.04.12-.07.24-.12.5-.19.8-.19ZM1556.31,211.83c.33,0,.62.09.88.24,0,0,.01,0,.01.02.13.07.24.17.34.28.09.08.16.17.21.26.05.07.09.16.12.22.1.22.16.45.16.71,0,.16-.01.31-.07.45-.03.13-.09.26-.16.38,0,.02-.02.05-.04.07-.07.13-.17.24-.28.34-.08.09-.17.16-.26.21-.07.05-.16.09-.22.12-.22.1-.45.16-.71.16-.16,0-.31-.01-.45-.07-.13-.03-.26-.09-.38-.16-.05-.02-.09-.03-.14-.07-.45-.31-.76-.84-.76-1.43,0-.95.78-1.73,1.73-1.73ZM1521.78,222.18c-.96,0-1.73.78-1.73,1.73v3.45c0,.95.77,1.73,1.73,1.73s1.73-.78,1.73-1.73v-3.45c0-.95-.77-1.73-1.73-1.73ZM1530.41,222.18c-.96,0-1.73.78-1.73,1.73v3.45c0,.95.77,1.73,1.73,1.73s1.73-.78,1.73-1.73v-3.45c0-.95-.77-1.73-1.73-1.73ZM1539.04,222.18c-.96,0-1.73.78-1.73,1.73v3.45c0,.95.77,1.73,1.73,1.73s1.73-.78,1.73-1.73v-3.45c0-.95-.77-1.73-1.73-1.73ZM1547.68,222.18c-.96,0-1.73.78-1.73,1.73v3.45c0,.95.77,1.73,1.73,1.73s1.73-.78,1.73-1.73v-3.45c0-.95-.77-1.73-1.73-1.73ZM1556.31,222.18c-.96,0-1.73.78-1.73,1.73v3.45c0,.95.77,1.73,1.73,1.73s1.73-.78,1.73-1.73v-3.45c0-.95-.77-1.73-1.73-1.73ZM1564.94,222.18c-.96,0-1.73.78-1.73,1.73v3.45c0,.95.77,1.73,1.73,1.73s1.73-.78,1.73-1.73v-3.45c0-.95-.77-1.73-1.73-1.73ZM1573.57,222.18c-.96,0-1.73.78-1.73,1.73v3.45c0,.95.77,1.73,1.73,1.73s1.73-.78,1.73-1.73v-3.45c0-.95-.77-1.73-1.73-1.73Z" style="fill:#f2f2f2; stroke-width:0px;"/><path d="M1464.16,243.26v-8.64c0-4.76.72-11.72,9.2-11.72s9.68,7,9.68,9.92v3.16h9.08v7.28h-27.96ZM1477,233.58v-.24c0-2.44-1.12-3.56-3.36-3.56s-3.44,1.24-3.44,3.52v.24c0,2.44,1.12,3.56,3.36,3.56s3.44-1.16,3.44-3.52Z" style="fill:#f2f2f2; stroke-width:0px;"/><path d="M1464.16,218.02v-7.36h21.36v-7.96h6.6v15.32h-27.96Z" style="fill:#f2f2f2; stroke-width:0px;"/><path d="M1464.16,189.74v-7.76l27.96-10v7.76l-2.56.92c-.72.28-1.32.56-1.8,1.08-.96,1.04-1.32,2.48-1.36,4v.32c.04,1.52.36,3,1.24,4.04.48.52,1.08.84,1.8,1.12l2.68,1v7.72l-27.96-10.2ZM1481.28,183.46l-7.6,2.44,7.6,2.48v-4.92Z" style="fill:#f2f2f2; stroke-width:0px;"/><path d="M1478.16,160.26h13.96v7.48h-27.96l-.04-8.76c8.24-2.4,16.92-7.88,16.92-7.88h-16.88v-7.48h27.96v7.8s-7.28,5.56-13.96,8.84Z" style="fill:#f2f2f2; stroke-width:0px;"/></g><g id="Research"><path d="M302.39,283.57h5.44v7.28h-27.96v-9.2c0-4.16.72-11.16,9.2-11.16s9.32,6.08,9.56,8.32c4.64-2.16,4.68-5.44.32-5.68v-6c1.48,0,2.92.32,4.28.88,3.16,1.32,4.96,4,4.96,7.32,0,3-1.96,5.76-5.8,8.24ZM292.71,281.17v-.24c0-2.44-1.12-3.56-3.36-3.56s-3.44,1.16-3.44,3.52v.24c0,2.44,1.12,3.56,3.36,3.56s3.44-1.16,3.44-3.52Z" style="fill:#f2f2f2; stroke-width:0px;"/><path d="M279.87,262.89v-15.32h6.56v6.52c0,1.2.68,1.76,2,1.76s2.04-.6,2.04-1.72v-6.16h6.56v6.12c0,1.24.72,1.84,2.08,1.84,1.44,0,2.16-.6,2.16-1.8v-6.56h6.56v15.32h-27.96Z" style="fill:#f2f2f2; stroke-width:0px;"/><path d="M306.43,242.01h-6.76c0-2.32,2.44-5.12,2.44-7.6,0-1.8-.88-2.92-2.36-2.92-1.16,0-2.16,1.2-3,3.64-1.08,3-2.96,7.24-8.44,7.24s-8.96-4-8.96-9.68c0-4.16,2-7.96,2-7.96h6.76c0,2.24-2.36,5.08-2.36,7.52,0,1.44.8,2.44,2,2.44,1.64,0,2.24-2.24,3.12-4.56,1.56-4.28,4.28-6.36,8.24-6.32,3.52,0,9.52,2.36,9.52,10.24,0,4.04-2.2,7.96-2.2,7.96Z" style="fill:#f2f2f2; stroke-width:0px;"/><path d="M279.87,218.41v-15.32h6.56v6.52c0,1.2.68,1.76,2,1.76s2.04-.6,2.04-1.72v-6.16h6.56v6.12c0,1.24.72,1.84,2.08,1.84,1.44,0,2.16-.6,2.16-1.8v-6.56h6.56v15.32h-27.96Z" style="fill:#f2f2f2; stroke-width:0px;"/><path d="M279.87,188.93v-7.76l27.96-10v7.76l-2.56.92c-.72.28-1.32.56-1.8,1.08-.96,1.04-1.32,2.48-1.36,4v.32c.04,1.52.36,3,1.24,4.04.48.52,1.08.84,1.8,1.12l2.68,1v7.72l-27.96-10.2ZM296.99,182.65l-7.6,2.44,7.6,2.48v-4.92Z" style="fill:#f2f2f2; stroke-width:0px;"/><path d="M302.39,159.65h5.44v7.28h-27.96v-9.2c0-4.16.72-11.16,9.2-11.16s9.32,6.08,9.56,8.32c4.64-2.16,4.68-5.44.32-5.68v-6c1.48,0,2.92.32,4.28.88,3.16,1.32,4.96,4,4.96,7.32,0,3-1.96,5.76-5.8,8.24ZM292.71,157.25v-.24c0-2.44-1.12-3.56-3.36-3.56s-3.44,1.16-3.44,3.52v.24c0,2.44,1.12,3.56,3.36,3.56s3.44-1.16,3.44-3.52Z" style="fill:#f2f2f2; stroke-width:0px;"/><path d="M293.79,140.09c-9.92,0-18-9.56-13.16-20.56h8.08c-4.28,5.48-1.88,13,5.08,13s9.28-7.52,5.32-13h7.88c5.04,11-3.68,20.56-13.2,20.56Z" style="fill:#f2f2f2; stroke-width:0px;"/><path d="M279.87,113.85v-7.48h10.6v-7.72h-10.6v-7.52h27.96v7.52h-11.28v7.72h11.28v7.48h-27.96Z" style="fill:#f2f2f2; stroke-width:0px;"/><path id="Brainstorm" d="M356.09,90.36c21.37,0,37.23,14.2,37.72,33.77.01.47.08.92.22,1.32l8.18,24.54c.29.87.18,1.8-.32,2.58-.49.77-1.3,1.27-2.2,1.37l-4.52.51c-.77.08-1.34.73-1.34,1.5v13.69c0,2.15-.91,4.19-2.51,5.62-1.6,1.43-3.74,2.12-5.87,1.87l-4.38-.48-8.14-.91.81,6.08c.17,1.29-.22,2.59-1.08,3.58-.85.98-2.1,1.54-3.4,1.54h-39.99c-1.28,0-2.51-.54-3.37-1.5-.85-.96-1.27-2.23-1.14-3.5l2.17-20.6c.21-1.96-.14-3.92-.99-5.67-4.95-10.15-7.58-21.26-7.58-32.12,0-19.55,15.52-33.2,37.73-33.2ZM356.09,93.38c-23.98,0-34.71,15.16-34.71,30.18,0,10.4,2.51,21.05,7.27,30.8,1.1,2.25,1.54,4.78,1.27,7.3l-2.16,20.6c-.04.43.09.85.38,1.17.29.32.69.5,1.12.5h39.99c.44,0,.84-.18,1.13-.52.29-.33.42-.75.36-1.18l-.9-6.82-4.86-.54c-.83-.09-1.43-.84-1.34-1.66.09-.83.84-1.43,1.67-1.34l4.12.46,16.34,1.82c1.29.14,2.56-.27,3.52-1.13.96-.86,1.51-2.09,1.51-3.37v-13.69c0-2.31,1.73-4.24,4.03-4.5l4.51-.51-8.18-24.54c-.23-.68-.35-1.43-.37-2.2-.44-17.86-15.03-30.82-34.7-30.82ZM356.09,97.91c.84,0,1.51.68,1.51,1.51v3.02c0,.83-.67,1.51-1.51,1.51s-1.51-.68-1.51-1.51v-3.02c0-.83.67-1.51,1.51-1.51ZM364.28,99.03c.19-.03.4-.02.6.04.8.22,1.29,1.04,1.07,1.85l-.78,2.91c-.18.68-.79,1.12-1.46,1.12-.13,0-.26-.01-.39-.05-.8-.22-1.28-1.05-1.07-1.85l.78-2.92c.17-.61.67-1.03,1.25-1.1ZM347.9,99.03c.58.08,1.08.5,1.25,1.1l.78,2.92c.21.8-.27,1.63-1.07,1.85-.14.03-.27.05-.39.05-.67,0-1.28-.44-1.46-1.12l-.78-2.91c-.22-.81.27-1.63,1.07-1.85.2-.05.41-.06.6-.04ZM372.5,102.26c.19.02.39.09.57.19.73.41.97,1.34.55,2.06l-1.51,2.61c-.28.49-.78.75-1.3.75-.26,0-.52-.06-.75-.19-.73-.42-.97-1.34-.55-2.07l1.51-2.61c.31-.54.91-.82,1.49-.75ZM339.68,102.27c.59-.08,1.18.2,1.49.74l1.51,2.61c.42.72.18,1.64-.55,2.06-.24.14-.5.2-.75.2-.52,0-1.03-.27-1.3-.75l-1.51-2.61c-.42-.73-.17-1.64.55-2.06.18-.11.38-.17.57-.19ZM337.98,111.49c4.16,0,7.55,3.38,7.55,7.55,0,1.45-.43,2.79-1.14,3.94l6.54,5.99c1.82-1.49,4.14-2.38,6.67-2.38s4.67.84,6.47,2.23l4.52-4.52c.59-.6,1.56-.6,2.15,0,.6.59.6,1.55,0,2.15l-4.56,4.56c1.24,1.73,1.99,3.85,1.99,6.14,0,.19-.02.38-.03.57l8.24,1.65c.79-1.32,2.22-2.22,3.87-2.22,2.49,0,4.53,2.03,4.53,4.53s-2.03,4.53-4.53,4.53c-2.28,0-4.14-1.69-4.46-3.88l-8.23-1.64c-1.29,3.63-4.52,6.35-8.44,6.91v4.65c0,.83-.67,1.51-1.51,1.51s-1.51-.68-1.51-1.51v-4.65c-2.3-.34-4.37-1.4-5.94-2.97l-5.08,3.81c.29.71.46,1.49.46,2.3,0,3.33-2.71,6.04-6.04,6.04s-6.04-2.71-6.04-6.04,2.71-6.04,6.04-6.04c1.42,0,2.71.51,3.75,1.34l5.09-3.83c-.83-1.5-1.3-3.23-1.3-5.06,0-2.2.68-4.24,1.83-5.94l-6.56-6.01c-1.23.87-2.72,1.39-4.33,1.39-4.16,0-7.55-3.38-7.55-7.55s3.38-7.55,7.55-7.55ZM375.71,113c3.33,0,6.04,2.71,6.04,6.04s-2.71,6.04-6.04,6.04-6.04-2.71-6.04-6.04,2.71-6.04,6.04-6.04ZM337.98,114.32c-2.6,0-4.72,2.12-4.72,4.72s2.12,4.72,4.72,4.72,4.72-2.12,4.72-4.72-2.12-4.72-4.72-4.72ZM375.71,115.64c-1.87,0-3.4,1.52-3.4,3.4s1.53,3.4,3.4,3.4,3.4-1.52,3.4-3.4-1.53-3.4-3.4-3.4ZM357.6,129.03c-4.47,0-8.11,3.64-8.11,8.11s3.64,8.11,8.11,8.11,8.11-3.64,8.11-8.11-3.64-8.11-8.11-8.11ZM380.24,139.79c-1.04,0-1.89.85-1.89,1.89s.84,1.89,1.89,1.89,1.89-.85,1.89-1.89-.84-1.89-1.89-1.89ZM339.49,147.33c-1.87,0-3.4,1.52-3.4,3.4s1.53,3.4,3.4,3.4,3.4-1.52,3.4-3.4-1.53-3.4-3.4-3.4ZM357.6,155.25c2.49,0,4.53,2.03,4.53,4.53s-2.03,4.53-4.53,4.53-4.53-2.03-4.53-4.53,2.03-4.53,4.53-4.53ZM357.6,158.06c-.95,0-1.72.77-1.72,1.72s.77,1.72,1.72,1.72,1.72-.77,1.72-1.72-.77-1.72-1.72-1.72Z" style="fill:#f2f2f2; stroke-width:0px;"/><path id="Check" d="M321.59,207.13c-1.78,0-3.23,1.45-3.23,3.23v77.54c0,1.78,1.45,3.23,3.23,3.23h77.54c1.78,0,3.23-1.45,3.23-3.23v-77.54c0-1.78-1.45-3.23-3.23-3.23h-77.54ZM321.59,210.36h77.54v77.54s-77.54,0-77.54,0v-77.54ZM331.29,220.05c-1.78,0-3.23,1.45-3.23,3.23v12.92c0,1.78,1.45,3.23,3.23,3.23h12.92c1.78,0,3.23-1.45,3.23-3.23v-4.71c0-.89-.72-1.62-1.62-1.62s-1.62.72-1.62,1.62v4.71h-12.92v-12.92h9.69c.89,0,1.62-.72,1.62-1.62s-.72-1.62-1.62-1.62h-9.69ZM348.25,220.86c-.41,0-.83.16-1.14.47l-9.36,9.36-2.09-2.09c-.63-.63-1.65-.63-2.28,0-.63.63-.63,1.65,0,2.28l3.23,3.23c.31.31.73.47,1.14.47s.83-.16,1.14-.47l10.5-10.5c.63-.63.63-1.65,0-2.28-.32-.32-.73-.47-1.14-.47ZM355.52,223.28c-.89,0-1.62.72-1.62,1.62s.72,1.62,1.62,1.62h35.54c.89,0,1.62-.72,1.62-1.62s-.72-1.62-1.62-1.62h-35.54ZM355.52,229.74c-.89,0-1.62.72-1.62,1.62s.72,1.62,1.62,1.62h25.85c.89,0,1.62-.72,1.62-1.62s-.72-1.62-1.62-1.62h-25.85ZM331.29,249.13c-1.78,0-3.23,1.45-3.23,3.23v12.92c0,1.78,1.45,3.23,3.23,3.23h12.92c1.78,0,3.23-1.45,3.23-3.23v-4.71c0-.89-.72-1.62-1.62-1.62s-1.62.72-1.62,1.62v4.71h-12.92v-12.92h9.69c.89,0,1.62-.72,1.62-1.62s-.72-1.62-1.62-1.62h-9.69ZM348.25,249.93c-.41,0-.83.16-1.14.47l-9.36,9.36-2.09-2.09c-.63-.63-1.65-.63-2.28,0s-.63,1.65,0,2.28l3.23,3.23c.31.31.73.47,1.14.47s.83-.16,1.14-.47l10.5-10.5c.63-.63.63-1.65,0-2.28-.32-.32-.73-.47-1.14-.47ZM355.52,252.36c-.89,0-1.62.72-1.62,1.62s.72,1.62,1.62,1.62h16.15c.89,0,1.62-.72,1.62-1.62s-.72-1.62-1.62-1.62h-16.15ZM378.13,252.36c-.89,0-1.62.72-1.62,1.62s.72,1.62,1.62,1.62h12.92c.89,0,1.62-.72,1.62-1.62s-.72-1.62-1.62-1.62h-12.92ZM355.52,258.82c-.89,0-1.62.72-1.62,1.62s.72,1.62,1.62,1.62h12.92c.89,0,1.62-.72,1.62-1.62s-.72-1.62-1.62-1.62h-12.92ZM328.06,278.2c-.89,0-1.62.72-1.62,1.62v3.23c0,.89.72,1.62,1.62,1.62s1.62-.72,1.62-1.62v-3.23c0-.89-.72-1.62-1.62-1.62ZM336.13,278.2c-.89,0-1.62.72-1.62,1.62v3.23c0,.89.72,1.62,1.62,1.62s1.62-.72,1.62-1.62v-3.23c0-.89-.72-1.62-1.62-1.62ZM344.21,278.2c-.89,0-1.62.72-1.62,1.62v3.23c0,.89.72,1.62,1.62,1.62s1.62-.72,1.62-1.62v-3.23c0-.89-.72-1.62-1.62-1.62ZM352.29,278.2c-.89,0-1.62.72-1.62,1.62v3.23c0,.89.72,1.62,1.62,1.62s1.62-.72,1.62-1.62v-3.23c0-.89-.72-1.62-1.62-1.62ZM360.36,278.2c-.89,0-1.62.72-1.62,1.62v3.23c0,.89.72,1.62,1.62,1.62s1.62-.72,1.62-1.62v-3.23c0-.89-.72-1.62-1.62-1.62ZM368.44,278.2c-.89,0-1.62.72-1.62,1.62v3.23c0,.89.72,1.62,1.62,1.62s1.62-.72,1.62-1.62v-3.23c0-.89-.72-1.62-1.62-1.62ZM376.52,278.2c-.89,0-1.62.72-1.62,1.62v3.23c0,.89.72,1.62,1.62,1.62s1.62-.72,1.62-1.62v-3.23c0-.89-.72-1.62-1.62-1.62ZM384.59,278.2c-.89,0-1.62.72-1.62,1.62v3.23c0,.89.72,1.62,1.62,1.62s1.62-.72,1.62-1.62v-3.23c0-.89-.72-1.62-1.62-1.62ZM392.67,278.2c-.89,0-1.62.72-1.62,1.62v3.23c0,.89.72,1.62,1.62,1.62s1.62-.72,1.62-1.62v-3.23c0-.89-.72-1.62-1.62-1.62Z" style="fill:#f2f2f2; stroke-width:0px;"/></g><g id="Analyze"><path id="Numbers" d="M126,97.02c-6.23,0-11.31,5.08-11.31,11.31v61.38c0,6.23,5.08,11.31,11.31,11.31h61.38c6.23,0,11.31-5.08,11.31-11.31v-61.38c0-6.23-5.08-11.31-11.31-11.31h-61.38ZM126,100.25h61.38c4.48,0,8.08,3.6,8.08,8.08v61.38c0,4.48-3.6,8.08-8.08,8.08h-61.38c-4.48,0-8.08-3.6-8.08-8.08v-61.38c0-4.48,3.6-8.08,8.08-8.08ZM124.36,105.07c-.89.01-1.6.75-1.59,1.64v3.23c-.01.89.7,1.63,1.59,1.64.89.01,1.63-.7,1.64-1.59,0-.02,0-.03,0-.05v-3.23c.01-.89-.7-1.63-1.59-1.64-.02,0-.03,0-.05,0ZM132.44,105.07c-.89.01-1.6.75-1.59,1.64v3.23c-.01.89.7,1.63,1.59,1.64.89.01,1.63-.7,1.64-1.59,0-.02,0-.03,0-.05v-3.23c.01-.89-.7-1.63-1.59-1.64-.02,0-.03,0-.05,0ZM140.51,105.07c-.89.01-1.6.75-1.59,1.64v3.23c-.01.89.7,1.63,1.59,1.64.89.01,1.63-.7,1.64-1.59,0-.02,0-.03,0-.05v-3.23c.01-.89-.7-1.63-1.59-1.64-.02,0-.03,0-.05,0ZM148.59,105.07c-.89.01-1.6.75-1.59,1.64v3.23c-.01.89.7,1.63,1.59,1.64.89.01,1.63-.7,1.64-1.59,0-.02,0-.03,0-.05v-3.23c.01-.89-.7-1.63-1.59-1.64-.02,0-.03,0-.05,0ZM156.67,105.07c-.89.01-1.6.75-1.59,1.64v3.23c-.01.89.7,1.63,1.59,1.64.89.01,1.63-.7,1.64-1.59,0-.02,0-.03,0-.05v-3.23c.01-.89-.7-1.63-1.59-1.64-.02,0-.03,0-.05,0ZM164.74,105.07c-.89.01-1.6.75-1.59,1.64v3.23c-.01.89.7,1.63,1.59,1.64.89.01,1.63-.7,1.64-1.59,0-.02,0-.03,0-.05v-3.23c.01-.89-.7-1.63-1.59-1.64-.02,0-.03,0-.05,0ZM172.82,105.07c-.89.01-1.6.75-1.59,1.64v3.23c-.01.89.7,1.63,1.59,1.64.89.01,1.63-.7,1.64-1.59,0-.02,0-.03,0-.05v-3.23c.01-.89-.7-1.63-1.59-1.64-.02,0-.03,0-.05,0ZM180.9,105.07c-.89.01-1.6.75-1.59,1.64v3.23c-.01.89.7,1.63,1.59,1.64.89.01,1.63-.7,1.64-1.59,0-.02,0-.03,0-.05v-3.23c.01-.89-.7-1.63-1.59-1.64-.02,0-.03,0-.05,0ZM188.97,105.07c-.89.01-1.6.75-1.59,1.64v3.23c-.01.89.7,1.63,1.59,1.64.89.01,1.63-.7,1.64-1.59,0-.02,0-.03,0-.05v-3.23c.01-.89-.7-1.63-1.59-1.64-.02,0-.03,0-.05,0ZM156.69,118.02c-.89,0-1.62.72-1.62,1.62v21h-12.92c-.89,0-1.62.72-1.62,1.62v9.69h-12.92c-.89,0-1.62.72-1.62,1.62v9.69c0,.89.72,1.62,1.62,1.62h58.15c.89,0,1.62-.72,1.62-1.62v-30.69c0-.89-.72-1.62-1.62-1.62h-12.92v-11.31c0-.89-.72-1.62-1.62-1.62h-14.54ZM158.31,121.25h11.31v40.38h-11.31v-40.38ZM172.85,134.17h11.31v27.46h-11.31v-27.46ZM143.77,143.86h11.31v17.77h-11.31v-17.77ZM129.23,155.17h11.31v6.46h-11.31v-6.46ZM127.62,168.09c-.89-.01-1.63.7-1.64,1.59-.01.89.7,1.63,1.59,1.64.02,0,.03,0,.05,0h58.15c.89.01,1.63-.7,1.64-1.59.01-.89-.7-1.63-1.59-1.64-.02,0-.03,0-.05,0h-58.15Z" style="fill:#f2f2f2; stroke-width:0px;"/><path id="DB" d="M156.35,203.01c-21.11,0-37.65,7-37.65,15.93v43.45c0,8.94,16.54,15.93,37.65,15.93,8.8,0,16.83-1.22,23.17-3.29v10.53c0,.8.65,1.45,1.45,1.45h8.69c.8,0,1.45-.65,1.45-1.45v-18.23l3.31,3.33c.56.56,1.49.56,2.06,0l5.79-5.79c.56-.56.56-1.49,0-2.06l-8.27-8.27v-35.6c0-8.93-16.54-15.93-37.65-15.93ZM156.35,205.91c20.79,0,34.76,6.74,34.76,13.03s-13.97,13.03-34.76,13.03-34.76-6.74-34.76-13.03,13.97-13.03,34.76-13.03ZM157.97,208.82c-.79,0-1.43.63-1.45,1.42-.01.8.62,1.46,1.42,1.48,1.37.02,2.75.08,4.1.18.03,0,.07,0,.1,0,.75,0,1.39-.59,1.45-1.35.05-.8-.55-1.49-1.35-1.54-1.4-.09-2.82-.15-4.24-.18h-.03ZM151.46,208.94c-4.57.25-8.92.87-12.58,1.79-.78.19-1.25.98-1.05,1.76.17.66.76,1.09,1.41,1.09.12,0,.24-.01.35-.04,3.49-.87,7.65-1.47,12.04-1.71.8-.04,1.41-.73,1.36-1.53-.04-.8-.74-1.41-1.52-1.37ZM121.59,225.18c5.63,5.75,18.9,9.69,34.76,9.69s29.13-3.94,34.76-9.69v8.24c0,6.29-13.97,13.03-34.76,13.03s-34.76-6.74-34.76-13.03v-8.24ZM121.59,239.66c5.63,5.75,18.9,9.69,34.76,9.69s29.13-3.94,34.76-9.69v11.98l-4.76-4.77c-.56-.56-1.49-.56-2.06,0l-12,12.01v-.7c0-.8-.65-1.45-1.45-1.45s-1.45.65-1.45,1.45v2.9c0,.2.04.4.12.57l-1.15,1.15c-.56.56-.56,1.49,0,2.06l5.79,5.79c.56.56,1.49.56,2.06,0l3.31-3.33v4.68c-5.92,2.07-13.86,3.42-23.17,3.42-20.8,0-34.76-6.73-34.76-13.03v-8.27c4.65,4.78,14.59,8.37,27.31,9.42.04,0,.08,0,.12,0,.75,0,1.38-.57,1.44-1.33.07-.8-.53-1.5-1.33-1.56-15.7-1.29-27.54-6.77-27.54-12.74v-8.24ZM185.31,249.95l13.89,13.89-3.75,3.75-4.76-4.78c-.42-.41-1.05-.53-1.58-.3-.55.22-.9.75-.9,1.33v20.27h-5.79v-20.27c0-.58-.35-1.11-.9-1.33-.54-.23-1.16-.1-1.58.3l-4.76,4.78-3.75-3.75,13.89-13.89ZM163.59,257.75c-.8,0-1.45.65-1.45,1.45v2.9c0,.8.65,1.45,1.45,1.45s1.45-.65,1.45-1.45v-2.9c0-.8-.65-1.45-1.45-1.45ZM156.35,258.04c-.8,0-1.45.65-1.45,1.45v2.9c0,.8.65,1.45,1.45,1.45s1.45-.65,1.45-1.45v-2.9c0-.8-.65-1.45-1.45-1.45Z" style="fill:#f2f2f2; stroke-width:0px;"/><path d="M76.92,268.32v-7.76l27.96-10v7.76l-2.56.92c-.72.28-1.32.56-1.8,1.08-.96,1.04-1.32,2.48-1.36,4v.32c.04,1.52.36,3,1.24,4.04.48.52,1.08.84,1.8,1.12l2.68,1v7.72l-27.96-10.2ZM94.04,262.05l-7.6,2.44,7.6,2.48v-4.92Z" style="fill:#f2f2f2; stroke-width:0px;"/><path d="M90.92,238.85h13.96v7.48h-27.96l-.04-8.76c8.24-2.4,16.92-7.88,16.92-7.88h-16.88v-7.48h27.96v7.8s-7.28,5.56-13.96,8.84Z" style="fill:#f2f2f2; stroke-width:0px;"/><path d="M76.92,207.76v-7.76l27.96-10v7.76l-2.56.92c-.72.28-1.32.56-1.8,1.08-.96,1.04-1.32,2.48-1.36,4v.32c.04,1.52.36,3,1.24,4.04.48.52,1.08.84,1.8,1.12l2.68,1v7.72l-27.96-10.2ZM94.04,201.49l-7.6,2.44,7.6,2.48v-4.92Z" style="fill:#f2f2f2; stroke-width:0px;"/><path d="M76.92,185.76v-7.36h21.36v-7.96h6.6v15.32h-27.96Z" style="fill:#f2f2f2; stroke-width:0px;"/><path d="M92.76,162.17l-15.84,9.64v-8.72l8.36-4.76-8.36-4.6v-8.8l15.84,9.96h12.12v7.28h-12.12Z" style="fill:#f2f2f2; stroke-width:0px;"/><path d="M94.24,140.12h-6.44c-.72-1.84-1.44-4.84-.68-8.04l-3.64-2.12v10.8h-6.56v-23l12.8,7.36c0-2.2-.76-4.36-2.24-6h6.72c1.96,4.4,1.28,7.92.96,9.12l3.12,1.8v-11.48h6.6v23.72l-12.24-7.04c0,2.32,1.6,4.88,1.6,4.88Z" style="fill:#f2f2f2; stroke-width:0px;"/><path d="M76.92,112.64v-15.32h6.56v6.52c0,1.2.68,1.76,2,1.76s2.04-.6,2.04-1.72v-6.16h6.56v6.12c0,1.24.72,1.84,2.08,1.84,1.44,0,2.16-.6,2.16-1.8v-6.56h6.56v15.32h-27.96Z" style="fill:#f2f2f2; stroke-width:0px;"/></g></g></svg>