<?xml version="1.0" encoding="UTF-8"?>
<svg xmlns="http://www.w3.org/2000/svg" overflow="hidden" preserveAspectRatio="xMidYMid slice" viewBox="0 0 1920 335">
  <defs>
    <linearGradient id="bg" x1="0" y1="0" x2="0" y2="1">
      <stop offset="0%" stop-color="#2e7858"/><stop offset="60%" stop-color="#1a4d38"/><stop offset="100%" stop-color="#0e2e1e"/>
    </linearGradient>
    <linearGradient id="h1" x1="0" y1="0" x2="0" y2="1">
      <stop offset="0%" stop-color="#1e5c40"/><stop offset="100%" stop-color="#0f3020"/>
    </linearGradient>
    <linearGradient id="h2" x1="0" y1="0" x2="0" y2="1">
      <stop offset="0%" stop-color="#2d7a52"/><stop offset="100%" stop-color="#1a4a32"/>
    </linearGradient>
    <linearGradient id="h3" x1="0" y1="0" x2="0" y2="1">
      <stop offset="0%" stop-color="#4d9970"/><stop offset="100%" stop-color="#2d6448"/>
    </linearGradient>
    <radialGradient id="sg" cx="86%" cy="14%" r="24%">
      <stop offset="0%" stop-color="#f5e060" stop-opacity="0.65"/>
      <stop offset="55%" stop-color="#f0c840" stop-opacity="0.22"/>
      <stop offset="100%" stop-color="#f0c840" stop-opacity="0"/>
    </radialGradient>
    <radialGradient id="bulbglow" cx="50%" cy="45%" r="55%">
      <stop offset="0%" stop-color="#f5e060" stop-opacity="0.6"/>
      <stop offset="100%" stop-color="#f5e060" stop-opacity="0"/>
    </radialGradient>
  </defs>

  <rect width="1920" height="335" fill="url(#bg)"/>
  <rect width="1920" height="335" fill="url(#sg)"/>
  <circle cx="1655" cy="50" r="72" fill="#f5e060" opacity="0.16"/>
  <circle cx="1655" cy="50" r="54" fill="#f5e060" opacity="0.32"/>
  <circle cx="1655" cy="50" r="38" fill="#f5e060" opacity="0.96"/>
  <path d="M0,232 Q480,145 960,185 Q1440,225 1920,168 L1920,335 L0,335 Z" fill="url(#h1)"/>
  <path d="M0,266 Q310,205 625,246 Q940,287 1265,222 Q1590,157 1920,238 L1920,335 L0,335 Z" fill="url(#h2)"/>
  <path d="M0,300 Q480,270 960,296 Q1440,322 1920,288 L1920,335 L0,335 Z" fill="url(#h3)"/>
  <g opacity="0.30"><ellipse cx="245" cy="68" rx="64" ry="22" fill="#a8c8b8"/><ellipse cx="283" cy="57" rx="42" ry="23" fill="#c2deca"/><ellipse cx="208" cy="65" rx="33" ry="18" fill="#c2deca"/></g>
  <g opacity="0.22"><ellipse cx="1340" cy="94" rx="70" ry="25" fill="#a8c8b8"/><ellipse cx="1382" cy="82" rx="46" ry="23" fill="#c2deca"/></g>
  <g fill="#071a0d">
    <polygon points="35,310 66,222 97,310"/><polygon points="39,285 66,214 93,285" opacity="0.72"/>
    <rect x="62" y="308" width="9" height="20"/>
    <polygon points="105,314 133,238 161,314"/><rect x="129" y="312" width="8" height="16"/>
    <polygon points="168,306 193,242 218,306" opacity="0.82"/><rect x="189" y="304" width="7" height="18" opacity="0.82"/>
    <polygon points="12,318 37,265 62,318" opacity="0.60"/>
  </g>
  <g fill="#071a0d">
    <polygon points="1755,304 1786,218 1817,304"/><polygon points="1759,280 1786,210 1813,280" opacity="0.72"/>
    <rect x="1782" y="302" width="9" height="20"/>
    <polygon points="1821,310 1849,234 1877,310"/><rect x="1845" y="308" width="9" height="18"/>
    <polygon points="1725,314 1751,250 1777,314" opacity="0.78"/><rect x="1747" y="312" width="7" height="15" opacity="0.78"/>
    <polygon points="1885,316 1906,264 1927,316" opacity="0.55"/>
  </g>
  <g fill="none" stroke="#98c8a8" stroke-width="2.5" stroke-linecap="round" opacity="0.48">
    <path d="M1450,60 Q1459,53 1468,60"/><path d="M1476,46 Q1484,40 1492,46"/><path d="M1428,74 Q1437,68 1446,74"/>
  </g>

  <!-- Lightbulb — glow -->
  <circle cx="558" cy="100" r="108" fill="url(#bulbglow)"/>

  <!-- Lightbulb — rays -->
  <g stroke="#f5e060" stroke-width="4" stroke-linecap="round" opacity="0.5">
    <line x1="558" y1="16" x2="558" y2="2"/>
    <line x1="622" y1="36" x2="636" y2="22"/>
    <line x1="662" y1="96" x2="679" y2="88"/>
    <line x1="494" y1="36" x2="480" y2="22"/>
    <line x1="454" y1="96" x2="437" y2="88"/>
  </g>

  <!-- Lightbulb — shadow -->
  <g transform="translate(8,10)" opacity="0.45">
    <path d="M 478,100 A 80,80 0 1 1 638,100 C 640,140 600,185 588,210 L 528,210 C 516,185 476,140 478,100 Z" fill="#1a4a30"/>
    <rect x="520" y="210" width="76" height="18" rx="6" fill="#1a4a30"/>
    <rect x="528" y="231" width="60" height="18" rx="6" fill="#1a4a30"/>
    <rect x="536" y="252" width="44" height="18" rx="6" fill="#1a4a30"/>
  </g>

  <!-- Lightbulb — glass (dome on top, narrows to neck toward base) -->
  <path d="M 478,100 A 80,80 0 1 1 638,100 C 640,140 600,185 588,210 L 528,210 C 516,185 476,140 478,100 Z"
        fill="#f5e060" opacity="0.93"/>
  <!-- Inner glow (lighter dome center) -->
  <ellipse cx="558" cy="82" rx="55" ry="52" fill="#fff8c0" opacity="0.32"/>

  <!-- Filament (inside the neck) -->
  <path d="M 510,158 Q 524,138 540,158 Q 556,178 572,158 Q 588,138 606,158"
        fill="none" stroke="#c8a000" stroke-width="5.5" stroke-linecap="round" opacity="0.72"/>

  <!-- Socket bands (metal base, steps in toward bottom) -->
  <rect x="520" y="210" width="76" height="18" rx="6" fill="#ddf0e8"/>
  <rect x="528" y="231" width="60" height="18" rx="6" fill="#cce8da"/>
  <rect x="536" y="252" width="44" height="18" rx="6" fill="#b8d8c8"/>

  <!-- Glare on bulb (upper-left highlight) -->
  <ellipse cx="506" cy="62" rx="30" ry="20" fill="white" opacity="0.22" transform="rotate(-18,506,62)"/>

  <text x="1254" y="183" font-family="Helvetica, 'Helvetica Neue', Arial, sans-serif"
        font-size="128" font-weight="900" text-anchor="middle"
        fill="#071a0d" opacity="0.42" letter-spacing="-3">AI Studio</text>
  <text x="1248" y="176" font-family="Helvetica, 'Helvetica Neue', Arial, sans-serif"
        font-size="128" font-weight="900" text-anchor="middle"
        fill="#dff2e8" letter-spacing="-3">AI Studio</text>
</svg>