<?xml version="1.0" encoding="UTF-8" standalone="no"?>
<!DOCTYPE svg PUBLIC "-//W3C//DTD SVG 1.1//EN" "http://www.w3.org/Graphics/SVG/1.1/DTD/svg11.dtd">
<svg width="100%" height="100%" viewBox="0 0 745 622" version="1.1" xmlns="http://www.w3.org/2000/svg" xmlns:xlink="http://www.w3.org/1999/xlink" xml:space="preserve" xmlns:serif="http://www.serif.com/" style="fill-rule:evenodd;clip-rule:evenodd;stroke-linejoin:round;stroke-miterlimit:2;">
    <g id="g13322" transform="matrix(2.64969,0,0,2.64969,-5485.74,2987.91)">
        <g id="layer1">
            <g id="g133221" serif:id="g13322">
                <g id="path13300" transform="matrix(1,0,0,1,1821.54,-1159.23)">
                    <path d="M434.281,67.438L380.25,121.75L334.406,121.75L290.75,165.406L344.156,165.406L344.156,219.719L398.469,165.406L444,165.406L487.656,121.75L434.281,121.75L434.281,67.438ZM423.281,93.813L423.281,121.75L395.313,121.75L423.281,93.813ZM338.813,132.75L369.281,132.75L347.594,154.406L317.156,154.406L338.813,132.75ZM384.969,132.75L415.438,132.75L393.438,154.406L363,154.406L384.969,132.75ZM430.813,132.75L461.281,132.75L439.594,154.406L409.156,154.406L430.813,132.75ZM383.094,165.094L355.156,193.031L355.156,165.406L383.094,165.094Z" style="fill:rgb(35,31,32);"/>
                </g>
                <g id="path13304" transform="matrix(1,0,0,1,1821.54,-1159.23)">
                    <path d="M398.156,198.094L398.156,230.406L407.281,230.406C417.006,230.406 425.813,227.285 425.813,214.406C425.812,201.209 417.006,198.094 407.281,198.094L398.156,198.094ZM404.75,203.094L408.531,203.094C413.885,203.094 419.188,207.171 419.188,214.406C419.188,221.323 413.885,225.406 408.531,225.406L404.75,225.406L404.75,203.094Z" style="fill:rgb(35,31,32);"/>
                </g>
                <g id="path13312" transform="matrix(1,0,0,1,1821.54,-1159.23)">
                    <path d="M470.75,198.031C469.99,198.011 469.245,198.054 468.5,198.094L456.875,198.094L456.875,230.406L463.469,230.406L463.469,218.469L468.188,218.469C470.995,218.469 471.949,219.42 472.875,221.938L476.375,230.406L484.219,230.406L478.875,219.125C477.92,217.244 477.594,216.611 476.031,215.656C476.031,215.656 481.693,214.093 481.375,207.813C481.375,200.114 476.068,198.176 470.75,198.031ZM463.469,203.406L467.875,203.406C471.319,203.406 474.148,204.368 474.438,207.813L474.438,208.719C474.148,212.192 471.319,213.125 467.875,213.125L463.469,213.125L463.469,203.406Z" style="fill:rgb(35,31,32);"/>
                </g>
                <path id="path13308" d="M2253.94,-928.819L2273.1,-928.819L2273.1,-934.144L2260.51,-934.144L2260.51,-961.147L2253.94,-961.147L2253.94,-928.819Z" style="fill:rgb(35,31,32);"/>
            </g>
        </g>
    </g>
</svg>
